<svg width="48" height="48" viewBox="0 0 48 48" fill="none" xmlns="http://www.w3.org/2000/svg">
<path d="M47.9996 14.7094C47.9996 13.4289 46.9575 12.3869 45.6771 12.3869C45.4107 12.3869 45.1584 12.4411 44.9199 12.5239L41.4508 8.18774C41.6722 7.83239 41.8061 7.41665 41.8061 6.96763C41.8061 5.68713 40.7641 4.64509 39.4836 4.64509C38.8325 4.64509 38.2457 4.91605 37.8238 5.34804L31.7209 2.53157C31.7271 2.4619 31.7418 2.39454 31.7418 2.32254C31.7418 1.04205 30.6997 0 29.4192 0C28.4113 0 27.5597 0.649538 27.2392 1.54836H18.4383C18.1178 0.649538 17.2662 0 16.2582 0C14.9777 0 13.9356 1.04205 13.9356 2.32254C13.9356 2.41854 13.9527 2.51067 13.9643 2.60435L10.1243 4.52431C9.70628 4.12174 9.14112 3.87091 8.51636 3.87091C7.23586 3.87091 6.19381 4.91295 6.19381 6.19345C6.19381 6.64247 6.32775 7.05821 6.54916 7.41356L3.08006 11.7497C2.84161 11.6669 2.58923 11.6127 2.32291 11.6127C1.04241 11.6127 0.000366211 12.6548 0.000366211 13.9353C0.000366211 14.9432 0.649904 15.7948 1.54873 16.1154V21.0461C0.649904 21.3658 0.000366211 22.2174 0.000366211 23.2254C0.000366211 24.5059 1.04241 25.548 2.32291 25.548C3.18302 25.548 3.92624 25.0726 4.32804 24.3766L8.55429 25.1446C8.73313 26.2486 9.68537 27.0963 10.8389 27.0963C10.8699 27.0963 10.8993 27.0886 10.9303 27.087L12.4074 30.7807C11.9243 31.2065 11.6131 31.8227 11.6131 32.5156C11.6131 33.7961 12.6551 34.8381 13.9356 34.8381C14.7145 34.8381 15.4012 34.4495 15.8223 33.8604L22.4663 35.7586C22.5259 36.7016 23.1453 37.4874 24 37.7924V43.4974C23.1012 43.8179 22.4516 44.6695 22.4516 45.6775C22.4516 46.958 23.4937 48 24.7742 48C26.0547 48 27.0967 46.958 27.0967 45.6775C27.0967 44.6695 26.4472 43.8179 25.5483 43.4974V37.7924C26.4472 37.4719 27.0967 36.6203 27.0967 35.6123C27.0967 34.8707 26.7406 34.2165 26.1979 33.7907L27.1223 31.0168L34.069 33.3324C34.0876 34.321 34.727 35.1532 35.6127 35.4691V43.4966C34.7139 43.8171 34.0643 44.6687 34.0643 45.6767C34.0643 46.9572 35.1064 47.9992 36.3869 47.9992C37.6674 47.9992 38.7094 46.9572 38.7094 45.6767C38.7094 44.6687 38.0599 43.8171 37.1611 43.4966V35.4699C38.0599 35.1494 38.7094 34.2978 38.7094 33.2898C38.7094 33.0072 38.6514 32.7393 38.5585 32.4885L44.4987 27.5384C44.8448 27.7443 45.2451 27.8705 45.6771 27.8705C46.9575 27.8705 47.9996 26.8285 47.9996 25.548C47.9996 24.54 47.3501 23.6884 46.4512 23.3679V16.8888C47.3501 16.569 47.9996 15.7174 47.9996 14.7094ZM39.4836 6.19345C39.9102 6.19345 40.2578 6.54028 40.2578 6.96763C40.2578 7.39498 39.9102 7.74181 39.4836 7.74181C39.057 7.74181 38.7094 7.39498 38.7094 6.96763C38.7094 6.54028 39.057 6.19345 39.4836 6.19345ZM38.3827 8.99985C38.7117 9.17946 39.0834 9.29017 39.4836 9.29017C39.7499 9.29017 40.0015 9.23598 40.24 9.15314L43.7091 13.4901C43.4884 13.8455 43.3545 14.2604 43.3545 14.7094C43.3545 14.8341 43.3723 14.9541 43.3917 15.0741L37.9074 18.0655L33.9134 14.7373C34.0063 14.4857 34.0643 14.2178 34.0643 13.9353C34.0643 13.6209 34.0001 13.3206 33.8863 13.0473L38.3827 8.99985ZM28.6451 21.6771C28.2874 21.6771 27.953 21.7646 27.6502 21.9101L24.37 18.6299L30.1609 15.6268C30.5766 16.0155 31.1294 16.2578 31.7418 16.2578C32.1738 16.2578 32.5733 16.1316 32.9201 15.9257L36.4449 18.8629L30.1872 22.2763C29.7761 21.9078 29.2396 21.6771 28.6451 21.6771ZM29.4192 23.9996C29.4192 24.427 29.0716 24.7738 28.6451 24.7738C28.2185 24.7738 27.8709 24.427 27.8709 23.9996C27.8709 23.5723 28.2185 23.2254 28.6451 23.2254C29.0716 23.2254 29.4192 23.5723 29.4192 23.9996ZM17.7144 15.4736L19.0143 19.6619L12.4198 23.0814C12.1434 22.8236 11.8051 22.6363 11.4288 22.5364L10.3558 14.3084L15.6605 14.0429C15.9973 14.8589 16.7869 15.4364 17.7144 15.4736ZM17.0324 13.1611C17.0324 12.7337 17.38 12.3869 17.8065 12.3869C18.2331 12.3869 18.5807 12.7337 18.5807 13.1611C18.5807 13.5884 18.2331 13.9353 17.8065 13.9353C17.38 13.9353 17.0324 13.5884 17.0324 13.1611ZM19.4795 21.1653L21.4429 27.4927L13.1568 24.7304C13.1553 24.6375 13.1413 24.5477 13.1289 24.4579L19.4795 21.1653ZM19.4741 15.9241L21.7796 18.2289L20.4101 18.9388L19.4741 15.9241ZM19.8968 14.1559C20.0416 13.8532 20.1291 13.5187 20.1291 13.1611C20.1291 12.8313 20.0579 12.5185 19.934 12.2344L23.6098 8.80321L29.5354 13.247C29.4665 13.4669 29.4192 13.6945 29.4192 13.9353C29.4192 14.0436 29.4371 14.1466 29.451 14.2511L23.2212 17.481L19.8968 14.1559ZM30.9676 13.9353C30.9676 13.5079 31.3152 13.1611 31.7418 13.1611C32.1684 13.1611 32.516 13.5079 32.516 13.9353C32.516 14.3626 32.1684 14.7094 31.7418 14.7094C31.3152 14.7094 30.9676 14.3626 30.9676 13.9353ZM37.7247 19.929L43.2717 24.5516L31.2525 23.4592L37.7247 19.929ZM29.4192 1.54836C29.8458 1.54836 30.1934 1.8952 30.1934 2.32254C30.1934 2.74989 29.8458 3.09672 29.4192 3.09672C28.9927 3.09672 28.6451 2.74989 28.6451 2.32254C28.6451 1.8952 28.9927 1.54836 29.4192 1.54836ZM28.3555 4.3749C28.6753 4.54135 29.0337 4.64509 29.4192 4.64509C30.0703 4.64509 30.6572 4.37412 31.0799 3.94136L37.182 6.75783C37.1758 6.82828 37.1611 6.89563 37.1611 6.96763C37.1611 7.28272 37.2253 7.58233 37.3391 7.85639L32.8427 11.903C32.5137 11.7234 32.142 11.6127 31.7418 11.6127C31.2664 11.6127 30.8244 11.7575 30.4559 12.0037L24.7595 7.73097L28.3555 4.3749ZM27.2392 3.09672C27.2577 3.14705 27.2709 3.19969 27.2918 3.24846L23.5006 6.78647L18.5807 3.09672H27.2392ZM16.2582 1.54836C16.6847 1.54836 17.0324 1.8952 17.0324 2.32254C17.0324 2.74989 16.6847 3.09672 16.2582 3.09672C15.8316 3.09672 15.484 2.74989 15.484 2.32254C15.484 1.8952 15.8316 1.54836 16.2582 1.54836ZM10.8389 6.19345C10.8389 6.09745 10.8219 6.00532 10.8103 5.91242L14.6502 3.99245C15.0683 4.39425 15.6334 4.64509 16.2582 4.64509C16.7335 4.64509 17.1756 4.50031 17.5441 4.25412L22.351 7.85949L18.8703 11.1079C18.5505 10.9415 18.1921 10.8385 17.8065 10.8385C16.7583 10.8385 15.8804 11.5407 15.5924 12.4961L10.1545 12.7678L9.56615 8.25354C10.3179 7.86878 10.8389 7.0946 10.8389 6.19345ZM8.51636 5.41927C8.94293 5.41927 9.29054 5.7661 9.29054 6.19345C9.29054 6.6208 8.94293 6.96763 8.51636 6.96763C8.08978 6.96763 7.74218 6.6208 7.74218 6.19345C7.74218 5.7661 8.08978 5.41927 8.51636 5.41927ZM7.75921 8.37896C7.84901 8.40993 7.93727 8.44322 8.03095 8.46335L8.60229 12.846L4.46894 13.0527C4.42017 12.9342 4.35746 12.8235 4.2901 12.7151L7.75921 8.37896ZM2.32291 13.1611C2.74948 13.1611 3.09709 13.5079 3.09709 13.9353C3.09709 14.3626 2.74948 14.7094 2.32291 14.7094C1.89634 14.7094 1.54873 14.3626 1.54873 13.9353C1.54873 13.5079 1.89634 13.1611 2.32291 13.1611ZM2.32291 23.9996C1.89634 23.9996 1.54873 23.6528 1.54873 23.2254C1.54873 22.7981 1.89634 22.4513 2.32291 22.4513C2.74948 22.4513 3.09709 22.7981 3.09709 23.2254C3.09709 23.6528 2.74948 23.9996 2.32291 23.9996ZM8.83377 23.6226L4.60829 22.8546C4.47126 22.0115 3.88288 21.3256 3.09709 21.0453V16.1146C3.78843 15.8676 4.32417 15.3063 4.53707 14.5995L8.80435 14.3858L9.88356 22.6618C9.43918 22.8639 9.07609 23.2022 8.83377 23.6226ZM10.8389 25.548C10.4123 25.548 10.0647 25.2011 10.0647 24.7738C10.0647 24.3464 10.4123 23.9996 10.8389 23.9996C11.2655 23.9996 11.6131 24.3464 11.6131 24.7738C11.6131 25.2011 11.2655 25.548 10.8389 25.548ZM13.9356 33.2898C13.5091 33.2898 13.1614 32.943 13.1614 32.5156C13.1614 32.0883 13.5091 31.7414 13.9356 31.7414C14.3622 31.7414 14.7098 32.0883 14.7098 32.5156C14.7098 32.943 14.3622 33.2898 13.9356 33.2898ZM22.8883 34.2676L16.2442 32.3693C16.166 31.1577 15.1666 30.1931 13.9356 30.1931C13.9047 30.1931 13.8752 30.2008 13.8443 30.2024L12.3671 26.5087C12.4747 26.4135 12.5723 26.3098 12.6613 26.1967L22.0088 29.3128L23.3892 33.7597C23.1979 33.9037 23.0276 34.0733 22.8883 34.2676ZM24.7742 46.4509C24.3476 46.4509 24 46.104 24 45.6767C24 45.2493 24.3476 44.9025 24.7742 44.9025C25.2007 44.9025 25.5483 45.2493 25.5483 45.6767C25.5483 46.104 25.2007 46.4509 24.7742 46.4509ZM24.7742 36.3865C24.3476 36.3865 24 36.0397 24 35.6123C24 35.185 24.3476 34.8381 24.7742 34.8381C25.2007 34.8381 25.5483 35.185 25.5483 35.6123C25.5483 36.0397 25.2007 36.3865 24.7742 36.3865ZM24.8005 33.0854L23.8165 29.9159L25.6529 30.5283L24.8005 33.0854ZM26.1429 29.0589L23.2521 28.095L20.8769 20.4415L22.9285 19.3778L26.5556 23.0048C26.41 23.3075 26.3225 23.6419 26.3225 23.9996C26.3225 24.7413 26.6786 25.3962 27.2221 25.8213L26.1429 29.0589ZM36.3869 46.4509C35.9603 46.4509 35.6127 46.104 35.6127 45.6767C35.6127 45.2493 35.9603 44.9025 36.3869 44.9025C36.8135 44.9025 37.1611 45.2493 37.1611 45.6767C37.1611 46.104 36.8135 46.4509 36.3869 46.4509ZM36.3869 34.064C35.9603 34.064 35.6127 33.7171 35.6127 33.2898C35.6127 32.8624 35.9603 32.5156 36.3869 32.5156C36.8135 32.5156 37.1611 32.8624 37.1611 33.2898C37.1611 33.7171 36.8135 34.064 36.3869 34.064ZM37.5652 31.2986C37.2183 31.0934 36.8189 30.9672 36.3869 30.9672C35.6452 30.9672 34.9903 31.3234 34.5652 31.8668L27.6115 29.5489L28.6884 26.3175C29.6035 26.3005 30.3862 25.7524 30.7485 24.9681L43.4343 26.1209C43.4544 26.1983 43.4776 26.2742 43.5055 26.3485L37.5652 31.2986ZM39.1871 19.1308L44.1349 16.432C44.3571 16.6317 44.6164 16.7866 44.9036 16.8888V23.3679C44.7612 23.419 44.6265 23.4817 44.4987 23.5576L39.1871 19.1308ZM45.6771 26.3222C45.2505 26.3222 44.9029 25.9753 44.9029 25.548C44.9029 25.1206 45.2505 24.7738 45.6771 24.7738C46.1036 24.7738 46.4512 25.1206 46.4512 25.548C46.4512 25.9753 46.1036 26.3222 45.6771 26.3222ZM45.6771 15.4836C45.2505 15.4836 44.9029 15.1368 44.9029 14.7094C44.9029 14.2821 45.2505 13.9353 45.6771 13.9353C46.1036 13.9353 46.4512 14.2821 46.4512 14.7094C46.4512 15.1368 46.1036 15.4836 45.6771 15.4836Z" fill="#F9F9F9"/>
</svg>
