<svg xmlns:inkscape="http://www.inkscape.org/namespaces/inkscape" xmlns:sodipodi="http://sodipodi.sourceforge.net/DTD/sodipodi-0.dtd" xmlns="http://www.w3.org/2000/svg" xmlns:svg="http://www.w3.org/2000/svg" width="196.10892mm" height="54.127399mm" viewBox="0 0 196.10892 54.127399" version="1.1" id="svg5" inkscape:version="1.1.2 (0a00cf5339, 2022-02-04, custom)" sodipodi:docname="epoch-logo.svg">
  <sodipodi:namedview id="namedview7" pagecolor="#ffffff" bordercolor="#666666" borderopacity="1.0" inkscape:pageshadow="2" inkscape:pageopacity="0.0" inkscape:pagecheckerboard="0" inkscape:document-units="mm" showgrid="false" fit-margin-top="0" fit-margin-left="0" fit-margin-right="0" fit-margin-bottom="0" inkscape:zoom="0.54787458" inkscape:cx="128.67909" inkscape:cy="128.67909" inkscape:window-width="1366" inkscape:window-height="750" inkscape:window-x="0" inkscape:window-y="18" inkscape:window-maximized="1" inkscape:current-layer="layer1"/>
  <defs id="defs2"/>
  <g inkscape:label="Layer 1" inkscape:groupmode="layer" id="layer1" transform="translate(2.9178714,-122.64361)">
    <g id="g94" transform="matrix(0.35277777,0,0,-0.35277777,-2.9178714,150.40158)" style="fill:#00a5a6;fill-opacity:1">
      <path d="m 0,0 v -29.165 l 132.974,67.27 V 67.27 Z M 120.31,-13.046 V 16.201 L 0,-45.501 V -74.748 Z M 0,15.452 V 44.868 L 64.184,78.684 V 49.268 Z" style="fill:#00a5a6;fill-opacity:1;fill-rule:nonzero;stroke:none" id="path96"/>
    </g>
    <g id="g98" transform="matrix(0.35277777,0,0,-0.35277777,60.183488,163.30041)">
      <path d="M 0,0 H 21.811 V 14.853 H 0 v 21.962 h 37.288 v 15.01 H -17.065 V -37.92 h 56.407 v 15.01 L 0,-22.91 Z" style="fill:#000000;fill-opacity:1;fill-rule:nonzero;stroke:none" id="path100"/>
    </g>
    <g id="g102" transform="matrix(0.35277777,0,0,-0.35277777,89.779709,159.00851)">
      <path d="M 0,0 H -9.163 V 24.807 H 1.106 c 9.797,0 14.378,-3.95 14.378,-12.008 C 15.484,3.16 6.953,0 0,0 m 0.949,39.659 h -27.177 v -89.745 h 17.065 v 35.709 h 7.9 c 16.274,0 34.918,7.9 34.918,27.176 0,16.589 -13.273,26.86 -32.706,26.86" style="fill:#000000;fill-opacity:1;fill-rule:nonzero;stroke:none" id="path104"/>
    </g>
    <g id="g106" transform="matrix(0.35277777,0,0,-0.35277777,187.17089,145.01784)">
      <path d="M 0,0 V -37.13 H -41.553 V 0 h -17.065 v -89.745 h 17.065 v 37.92 H 0 v -37.92 H 17.065 V 0 Z" style="fill:#000000;fill-opacity:1;fill-rule:nonzero;stroke:none" id="path108"/>
    </g>
    <g id="g110" transform="matrix(0.35277777,0,0,-0.35277777,120.41176,170.57751)">
      <path d="m 0,0 c -15.317,0 -27.734,12.417 -27.734,27.734 0,15.317 12.417,27.734 27.734,27.734 15.317,0 27.734,-12.417 27.734,-27.734 C 27.734,12.417 15.317,0 0,0 m 0,72.76 c -24.867,0 -45.026,-20.159 -45.026,-45.026 0,-24.867 20.159,-45.026 45.026,-45.026 24.867,0 45.026,20.159 45.026,45.026 C 45.026,52.601 24.867,72.76 0,72.76" style="fill:#000000;fill-opacity:1;fill-rule:nonzero;stroke:none" id="path112"/>
    </g>
    <g id="g114" transform="matrix(0.35277777,0,0,-0.35277777,155.76097,170.57751)">
      <path d="m 0,0 c -15.317,0 -27.734,12.417 -27.734,27.734 0,15.317 12.417,27.734 27.734,27.734 5.925,0 11.415,-1.859 15.921,-5.023 V 69.861 C 10.971,71.733 5.606,72.76 0,72.76 c -24.867,0 -45.026,-20.159 -45.026,-45.026 0,-24.867 20.159,-45.026 45.026,-45.026 5.606,0 10.971,1.027 15.921,2.899 V 5.024 C 11.415,1.859 5.925,0 0,0" style="fill:#000000;fill-opacity:1;fill-rule:nonzero;stroke:none" id="path116"/>
    </g>
  </g>
</svg>