<?xml version="1.0" encoding="UTF-8"?><svg xmlns="http://www.w3.org/2000/svg" viewBox="0 0 349 109.84"><defs><style>.f{fill:#a32035;}.g{fill:#231f20;}.h{fill:#888b8d;}</style></defs><g id="a"/><g id="b"/><g id="c"/><g id="d"/><g id="e"><g><path class="g" d="M8.82,77.31v9.98h-1.66v-9.98h-3.16v-1.34H12v1.34h-3.18Z"/><path class="g" d="M19.99,87.29v-5.27h-4.63v5.27h-1.6v-11.32h1.6v4.65h4.63v-4.65h1.64v11.32h-1.64Z"/><path class="g" d="M24.77,87.29v-11.32h5.88v1.45h-4.27v3.2h2.86v1.39h-2.86v3.8h4.27v1.47h-5.88Z"/><path class="g" d="M36.61,87.29v-11.32h5.88v1.45h-4.27v3.2h2.86v1.39h-2.86v3.8h4.27v1.47h-5.88Z"/><path class="g" d="M52.53,86.44c-.48,.39-.98,.67-1.51,.85-.53,.18-1.1,.26-1.73,.26-.69,0-1.33-.14-1.93-.43s-1.11-.69-1.55-1.21c-.44-.51-.78-1.13-1.04-1.85-.25-.72-.38-1.51-.38-2.36,0-1.05,.2-2.01,.59-2.86,.4-.85,.96-1.56,1.68-2.13,.88-.67,1.85-1,2.92-1,.58,0,1.1,.06,1.58,.18,.48,.12,.93,.32,1.36,.59l-.45,1.58c-.84-.5-1.68-.75-2.5-.75-.48,0-.93,.11-1.35,.32-.42,.21-.79,.51-1.1,.89-.31,.38-.56,.84-.74,1.38-.18,.54-.27,1.13-.27,1.77s.09,1.21,.26,1.73,.41,.98,.72,1.37c.3,.38,.65,.68,1.05,.89,.4,.21,.82,.32,1.27,.32,.5,0,.98-.08,1.42-.25,.45-.17,.91-.42,1.38-.76l.32,1.47Z"/><path class="g" d="M64.61,81.64c0,.8-.13,1.56-.4,2.27-.27,.71-.66,1.35-1.16,1.91-.51,.56-1.09,1-1.72,1.29-.63,.29-1.31,.44-2.02,.44-1.46,0-2.71-.58-3.75-1.73-.49-.56-.87-1.2-1.13-1.9-.26-.7-.4-1.46-.4-2.28s.13-1.56,.4-2.28c.26-.72,.65-1.36,1.15-1.92,.51-.57,1.09-1,1.72-1.29,.63-.29,1.31-.44,2.02-.44,1.44,0,2.69,.58,3.73,1.73,.5,.56,.89,1.21,1.16,1.92,.27,.71,.4,1.47,.4,2.28Zm-1.73-.02c0-.63-.09-1.21-.28-1.73-.19-.53-.45-.99-.77-1.37s-.71-.69-1.14-.9c-.43-.21-.89-.32-1.37-.32s-.95,.11-1.38,.32c-.43,.21-.81,.51-1.14,.89-.33,.38-.58,.84-.77,1.37-.19,.53-.28,1.11-.28,1.74s.09,1.23,.28,1.77c.19,.54,.45,1,.77,1.39,.33,.39,.71,.69,1.14,.91,.43,.22,.89,.33,1.38,.33s.93-.11,1.36-.33c.43-.22,.8-.53,1.13-.92s.59-.86,.78-1.39c.19-.53,.29-1.12,.29-1.76Z"/><path class="g" d="M73.14,87.29l-4.69-8.17v8.17h-1.6v-11.32h1.49l4.75,8.25v-8.25h1.64v11.32h-1.58Z"/><path class="g" d="M87.59,81.64c0,.8-.13,1.56-.4,2.27-.27,.71-.66,1.35-1.16,1.91-.51,.56-1.09,1-1.72,1.29-.63,.29-1.31,.44-2.02,.44-1.46,0-2.71-.58-3.75-1.73-.49-.56-.87-1.2-1.13-1.9-.26-.7-.4-1.46-.4-2.28s.13-1.56,.4-2.28c.26-.72,.65-1.36,1.15-1.92,.51-.57,1.09-1,1.72-1.29,.63-.29,1.31-.44,2.02-.44,1.44,0,2.69,.58,3.73,1.73,.5,.56,.89,1.21,1.16,1.92,.27,.71,.4,1.47,.4,2.28Zm-1.73-.02c0-.63-.09-1.21-.28-1.73-.19-.53-.45-.99-.77-1.37s-.71-.69-1.14-.9c-.43-.21-.89-.32-1.37-.32s-.95,.11-1.38,.32c-.43,.21-.81,.51-1.14,.89-.33,.38-.58,.84-.77,1.37-.19,.53-.28,1.11-.28,1.74s.09,1.23,.28,1.77c.19,.54,.45,1,.77,1.39,.33,.39,.71,.69,1.14,.91,.43,.22,.89,.33,1.38,.33s.93-.11,1.36-.33c.43-.22,.8-.53,1.13-.92s.59-.86,.78-1.39c.19-.53,.29-1.12,.29-1.76Z"/><path class="g" d="M98.55,87.29v-8.19l-3.03,8.21h-1.04l-3.05-8.21v8.19h-1.6v-11.32h2.01l3.15,8.59,3.14-8.59h2.01v11.32h-1.6Z"/><path class="g" d="M103.37,87.29v-11.32h1.71v11.32h-1.71Z"/><path class="g" d="M115.66,86.44c-.48,.39-.98,.67-1.51,.85-.53,.18-1.1,.26-1.73,.26-.69,0-1.33-.14-1.93-.43s-1.11-.69-1.55-1.21c-.44-.51-.78-1.13-1.04-1.85-.25-.72-.38-1.51-.38-2.36,0-1.05,.2-2.01,.59-2.86,.4-.85,.96-1.56,1.68-2.13,.88-.67,1.85-1,2.92-1,.58,0,1.1,.06,1.58,.18,.48,.12,.93,.32,1.36,.59l-.45,1.58c-.84-.5-1.68-.75-2.5-.75-.48,0-.93,.11-1.35,.32-.42,.21-.79,.51-1.1,.89-.31,.38-.56,.84-.74,1.38-.18,.54-.27,1.13-.27,1.77s.09,1.21,.26,1.73,.41,.98,.72,1.37c.3,.38,.65,.68,1.05,.89,.4,.21,.82,.32,1.27,.32,.5,0,.98-.08,1.42-.25,.45-.17,.91-.42,1.38-.76l.32,1.47Z"/><path class="g" d="M128.03,87.29l-1.11-3.18h-3.78l-1.11,3.18h-1.69l4.05-11.32h1.3l4.07,11.32h-1.71Zm-3.01-8.66l-1.43,4.16h2.86l-1.43-4.16Z"/><path class="g" d="M137.77,87.29l-4.69-8.17v8.17h-1.6v-11.32h1.49l4.75,8.25v-8.25h1.64v11.32h-1.58Z"/><path class="g" d="M145.09,75.95c.82,0,1.56,.13,2.23,.4,.67,.26,1.24,.64,1.71,1.12s.83,1.07,1.09,1.75,.39,1.45,.39,2.31-.13,1.69-.39,2.4c-.26,.71-.62,1.31-1.09,1.81-.47,.5-1.04,.88-1.71,1.15-.67,.27-1.42,.4-2.23,.4h-2.6v-11.34h2.6Zm-.09,9.87c1.22,0,2.16-.36,2.82-1.08,.66-.72,.99-1.77,.99-3.14s-.33-2.41-.98-3.12-1.59-1.06-2.83-1.06h-.9v8.4h.9Z"/><path class="g" d="M160.08,77.31v9.98h-1.66v-9.98h-3.16v-1.34h8v1.34h-3.18Z"/><path class="g" d="M165.02,87.29v-11.32h5.88v1.45h-4.27v3.2h2.86v1.39h-2.86v3.8h4.27v1.47h-5.88Z"/><path class="g" d="M180.93,86.44c-.48,.39-.98,.67-1.51,.85-.53,.18-1.1,.26-1.73,.26-.69,0-1.33-.14-1.93-.43s-1.11-.69-1.55-1.21c-.44-.51-.78-1.13-1.04-1.85-.25-.72-.38-1.51-.38-2.36,0-1.05,.2-2.01,.59-2.86,.4-.85,.96-1.56,1.68-2.13,.88-.67,1.85-1,2.92-1,.58,0,1.1,.06,1.58,.18,.48,.12,.93,.32,1.36,.59l-.45,1.58c-.84-.5-1.68-.75-2.5-.75-.48,0-.93,.11-1.35,.32-.42,.21-.79,.51-1.1,.89-.31,.38-.56,.84-.74,1.38-.18,.54-.27,1.13-.27,1.77s.09,1.21,.26,1.73,.41,.98,.72,1.37c.3,.38,.65,.68,1.05,.89,.4,.21,.82,.32,1.27,.32,.5,0,.98-.08,1.42-.25,.45-.17,.91-.42,1.38-.76l.32,1.47Z"/><path class="g" d="M189.18,87.29v-5.27h-4.63v5.27h-1.6v-11.32h1.6v4.65h4.63v-4.65h1.64v11.32h-1.64Z"/><path class="g" d="M200.25,87.29l-4.69-8.17v8.17h-1.6v-11.32h1.49l4.75,8.25v-8.25h1.64v11.32h-1.58Z"/><path class="g" d="M205.05,87.29v-11.32h1.71v11.32h-1.71Z"/><path class="g" d="M217.35,86.44c-.48,.39-.98,.67-1.51,.85-.53,.18-1.1,.26-1.73,.26-.69,0-1.33-.14-1.93-.43s-1.11-.69-1.55-1.21c-.44-.51-.78-1.13-1.04-1.85-.25-.72-.38-1.51-.38-2.36,0-1.05,.2-2.01,.59-2.86,.4-.85,.96-1.56,1.68-2.13,.88-.67,1.85-1,2.92-1,.58,0,1.1,.06,1.58,.18,.48,.12,.93,.32,1.36,.59l-.45,1.58c-.84-.5-1.68-.75-2.5-.75-.48,0-.93,.11-1.35,.32-.42,.21-.79,.51-1.1,.89-.31,.38-.56,.84-.74,1.38-.18,.54-.27,1.13-.27,1.77s.09,1.21,.26,1.73,.41,.98,.72,1.37c.3,.38,.65,.68,1.05,.89,.4,.21,.82,.32,1.27,.32,.5,0,.98-.08,1.42-.25,.45-.17,.91-.42,1.38-.76l.32,1.47Z"/><path class="g" d="M226.4,87.29l-1.11-3.18h-3.79l-1.11,3.18h-1.69l4.05-11.32h1.3l4.07,11.32h-1.71Zm-3.01-8.66l-1.43,4.16h2.86l-1.43-4.16Z"/><path class="g" d="M229.85,87.29v-11.32h1.66v9.87h4.18v1.45h-5.84Z"/><path class="g" d="M243.05,77.42v3.2h3.18v1.39h-3.18v5.27h-1.6v-11.32h5.88v1.45h-4.28Z"/><path class="g" d="M258.75,81.64c0,.8-.14,1.56-.41,2.27-.27,.71-.66,1.35-1.16,1.91-.51,.56-1.09,1-1.72,1.29-.63,.29-1.31,.44-2.02,.44-1.46,0-2.7-.58-3.75-1.73-.49-.56-.87-1.2-1.13-1.9-.26-.7-.4-1.46-.4-2.28s.13-1.56,.4-2.28c.26-.72,.65-1.36,1.15-1.92,.51-.57,1.09-1,1.72-1.29,.63-.29,1.31-.44,2.02-.44,1.44,0,2.69,.58,3.73,1.73,.5,.56,.89,1.21,1.16,1.92,.27,.71,.41,1.47,.41,2.28Zm-1.73-.02c0-.63-.09-1.21-.28-1.73s-.45-.99-.77-1.37-.71-.69-1.14-.9c-.43-.21-.89-.32-1.36-.32s-.95,.11-1.39,.32c-.43,.21-.81,.51-1.14,.89-.33,.38-.58,.84-.77,1.37-.19,.53-.28,1.11-.28,1.74s.09,1.23,.28,1.77,.45,1,.77,1.39c.33,.39,.71,.69,1.14,.91,.43,.22,.89,.33,1.39,.33s.93-.11,1.35-.33c.43-.22,.8-.53,1.13-.92,.33-.4,.59-.86,.78-1.39,.19-.53,.29-1.12,.29-1.76Z"/><path class="g" d="M269.32,82.64c0,1.57-.38,2.78-1.13,3.63-.75,.85-1.81,1.28-3.16,1.28s-2.36-.42-3.09-1.27-1.09-2.06-1.09-3.64v-6.67h1.58v6.67c0,2.28,.88,3.43,2.65,3.43s2.66-1.14,2.66-3.43v-6.67h1.58v6.67Z"/><path class="g" d="M278.56,87.29l-4.69-8.17v8.17h-1.6v-11.32h1.49l4.74,8.25v-8.25h1.64v11.32h-1.58Z"/><path class="g" d="M285.89,75.95c.82,0,1.56,.13,2.23,.4,.67,.26,1.24,.64,1.71,1.12s.84,1.07,1.09,1.75c.26,.68,.39,1.45,.39,2.31s-.13,1.69-.39,2.4c-.26,.71-.62,1.31-1.09,1.81-.47,.5-1.04,.88-1.71,1.15-.67,.27-1.42,.4-2.23,.4h-2.6v-11.34h2.6Zm-.1,9.87c1.22,0,2.16-.36,2.82-1.08s.99-1.77,.99-3.14-.33-2.41-.98-3.12-1.59-1.06-2.82-1.06h-.9v8.4h.9Z"/><path class="g" d="M299.67,87.29l-1.11-3.18h-3.79l-1.11,3.18h-1.69l4.05-11.32h1.3l4.07,11.32h-1.71Zm-3.01-8.66l-1.43,4.16h2.86l-1.43-4.16Z"/><path class="g" d="M305.87,77.31v9.98h-1.66v-9.98h-3.16v-1.34h8v1.34h-3.18Z"/><path class="g" d="M310.84,87.29v-11.32h1.71v11.32h-1.71Z"/><path class="g" d="M325.47,81.64c0,.8-.14,1.56-.41,2.27-.27,.71-.66,1.35-1.16,1.91-.51,.56-1.09,1-1.72,1.29-.63,.29-1.31,.44-2.02,.44-1.46,0-2.7-.58-3.75-1.73-.49-.56-.87-1.2-1.13-1.9-.26-.7-.4-1.46-.4-2.28s.13-1.56,.4-2.28c.26-.72,.65-1.36,1.15-1.92,.51-.57,1.09-1,1.72-1.29,.63-.29,1.31-.44,2.02-.44,1.44,0,2.69,.58,3.73,1.73,.5,.56,.89,1.21,1.16,1.92,.27,.71,.41,1.47,.41,2.28Zm-1.73-.02c0-.63-.09-1.21-.28-1.73s-.45-.99-.77-1.37-.71-.69-1.14-.9c-.43-.21-.89-.32-1.36-.32s-.95,.11-1.39,.32c-.43,.21-.81,.51-1.14,.89-.33,.38-.58,.84-.77,1.37-.19,.53-.28,1.11-.28,1.74s.09,1.23,.28,1.77,.45,1,.77,1.39c.33,.39,.71,.69,1.14,.91,.43,.22,.89,.33,1.39,.33s.93-.11,1.35-.33c.43-.22,.8-.53,1.13-.92,.33-.4,.59-.86,.78-1.39,.19-.53,.29-1.12,.29-1.76Z"/><path class="g" d="M334,87.29l-4.69-8.17v8.17h-1.6v-11.32h1.49l4.74,8.25v-8.25h1.64v11.32h-1.58Z"/><path class="g" d="M342.08,80.7c.89,.4,1.55,.86,1.97,1.37,.42,.51,.63,1.21,.63,2.09,0,.5-.09,.96-.26,1.37-.18,.41-.42,.77-.73,1.07-.31,.3-.69,.53-1.13,.7-.44,.16-.92,.24-1.45,.24-1.46,0-2.54-.62-3.24-1.86l1.22-1.04c.33,.48,.66,.83,.99,1.06s.71,.35,1.14,.35c.59,0,1.06-.17,1.4-.52,.35-.35,.52-.81,.52-1.38,0-.45-.14-.83-.42-1.13-.28-.3-.72-.56-1.31-.79l-.77-.3c-1.63-.63-2.45-1.69-2.45-3.18,0-.43,.08-.83,.25-1.21,.17-.38,.41-.7,.72-.98,.31-.28,.67-.49,1.08-.65,.41-.16,.87-.24,1.36-.24,.92,0,1.79,.29,2.64,.87l-.58,1.56c-.95-.58-1.71-.87-2.28-.87-.48,0-.86,.13-1.15,.4-.29,.27-.43,.64-.43,1.1,0,.36,.13,.66,.38,.89,.25,.23,.63,.46,1.13,.69l.79,.36Z"/><path class="g" d="M14.58,98.97c0,.8-.14,1.56-.41,2.27-.27,.71-.66,1.35-1.16,1.91-.51,.56-1.09,1-1.72,1.29-.63,.29-1.31,.44-2.02,.44-1.46,0-2.7-.58-3.75-1.73-.49-.56-.87-1.2-1.13-1.9-.26-.7-.4-1.46-.4-2.28s.13-1.56,.4-2.28c.26-.72,.65-1.36,1.15-1.92,.51-.57,1.09-1,1.72-1.29,.63-.29,1.31-.44,2.02-.44,1.44,0,2.69,.58,3.73,1.73,.5,.56,.89,1.21,1.16,1.92,.27,.71,.41,1.47,.41,2.28Zm-1.73-.02c0-.63-.09-1.21-.28-1.73s-.45-.99-.77-1.37-.71-.69-1.14-.9c-.43-.21-.89-.32-1.36-.32s-.95,.11-1.39,.32c-.43,.21-.81,.51-1.14,.89-.33,.38-.58,.84-.77,1.37-.19,.53-.28,1.11-.28,1.74s.09,1.23,.28,1.77,.45,1,.77,1.39c.33,.39,.71,.69,1.14,.91,.43,.22,.89,.33,1.39,.33s.93-.11,1.35-.33c.43-.22,.8-.53,1.13-.92,.33-.4,.59-.86,.78-1.39,.19-.53,.29-1.12,.29-1.76Z"/><path class="g" d="M18.42,94.76v3.2h3.18v1.39h-3.18v5.27h-1.6v-11.32h5.88v1.45h-4.28Z"/><path class="g" d="M30.68,93.31c1.34,0,2.36,.28,3.06,.84,.7,.56,1.05,1.37,1.05,2.42,0,.49-.1,.94-.29,1.34-.19,.4-.47,.75-.83,1.05-.36,.29-.79,.52-1.29,.68-.5,.16-1.07,.24-1.69,.24h-.74v4.76h-1.6v-11.32h2.34Zm-.26,5.16c1.81,0,2.71-.63,2.71-1.89,0-.65-.22-1.12-.67-1.42-.45-.3-1.13-.45-2.04-.45h-.47v3.77h.47Z"/><path class="g" d="M42.36,104.62v-2.79c0-.79-.19-1.36-.57-1.7-.38-.35-.99-.52-1.82-.52h-1.22v5.01h-1.6v-11.32h2.94c1.31,0,2.3,.25,2.98,.76,.68,.51,1.03,1.23,1.03,2.18,0,.6-.15,1.11-.45,1.53-.3,.42-.75,.77-1.35,1.06v.06c1.13,.3,1.69,1.25,1.69,2.84v2.88h-1.62Zm-2.75-6.4c.94,0,1.64-.14,2.08-.42,.45-.28,.67-.76,.67-1.44,0-.6-.23-1.02-.68-1.26s-1.16-.36-2.13-.36h-.81v3.48h.87Z"/><path class="g" d="M56.69,98.97c0,.8-.14,1.56-.41,2.27-.27,.71-.66,1.35-1.16,1.91-.51,.56-1.09,1-1.72,1.29-.63,.29-1.31,.44-2.02,.44-1.46,0-2.7-.58-3.75-1.73-.49-.56-.87-1.2-1.13-1.9-.26-.7-.4-1.46-.4-2.28s.13-1.56,.4-2.28c.26-.72,.65-1.36,1.15-1.92,.51-.57,1.09-1,1.72-1.29,.63-.29,1.31-.44,2.02-.44,1.44,0,2.69,.58,3.73,1.73,.5,.56,.89,1.21,1.16,1.92,.27,.71,.41,1.47,.41,2.28Zm-1.73-.02c0-.63-.09-1.21-.28-1.73s-.45-.99-.77-1.37-.71-.69-1.14-.9c-.43-.21-.89-.32-1.36-.32s-.95,.11-1.39,.32c-.43,.21-.81,.51-1.14,.89-.33,.38-.58,.84-.77,1.37-.19,.53-.28,1.11-.28,1.74s.09,1.23,.28,1.77,.45,1,.77,1.39c.33,.39,.71,.69,1.14,.91,.43,.22,.89,.33,1.39,.33s.93-.11,1.35-.33c.43-.22,.8-.53,1.13-.92,.33-.4,.59-.86,.78-1.39,.19-.53,.29-1.12,.29-1.76Z"/><path class="g" d="M66.74,103.81c-.97,.72-2.06,1.07-3.28,1.07-1.1,0-2.11-.33-3.01-.98-.75-.55-1.34-1.25-1.75-2.09-.41-.84-.62-1.77-.62-2.79,0-.87,.15-1.68,.46-2.43s.7-1.36,1.18-1.83c.61-.59,1.24-1.03,1.87-1.31,.63-.28,1.33-.42,2.08-.42,1.06,0,2.04,.24,2.94,.72l-.56,1.56c-.92-.44-1.74-.66-2.47-.66-.53,0-1.02,.11-1.48,.33-.46,.22-.86,.52-1.2,.91-.34,.39-.61,.85-.81,1.37s-.3,1.1-.3,1.71,.1,1.21,.3,1.76c.2,.55,.47,1.02,.81,1.41s.73,.71,1.18,.93,.91,.34,1.4,.34c.54,0,1.11-.11,1.71-.34v-2.98h-1.19v-1.51h2.73v5.2Z"/><path class="g" d="M75.01,104.62v-2.79c0-.79-.19-1.36-.57-1.7-.38-.35-.99-.52-1.82-.52h-1.22v5.01h-1.6v-11.32h2.94c1.31,0,2.3,.25,2.98,.76,.68,.51,1.03,1.23,1.03,2.18,0,.6-.15,1.11-.45,1.53-.3,.42-.75,.77-1.35,1.06v.06c1.13,.3,1.69,1.25,1.69,2.84v2.88h-1.62Zm-2.75-6.4c.94,0,1.64-.14,2.08-.42,.45-.28,.67-.76,.67-1.44,0-.6-.23-1.02-.68-1.26s-1.16-.36-2.13-.36h-.81v3.48h.87Z"/><path class="g" d="M79.62,104.62v-11.32h5.88v1.45h-4.28v3.2h2.86v1.39h-2.86v3.8h4.28v1.47h-5.88Z"/><path class="g" d="M91.5,98.03c.89,.4,1.55,.86,1.97,1.37,.42,.51,.63,1.21,.63,2.09,0,.5-.09,.96-.26,1.37-.18,.41-.42,.77-.73,1.07-.31,.3-.69,.53-1.13,.7-.44,.16-.92,.24-1.45,.24-1.46,0-2.54-.62-3.24-1.86l1.22-1.04c.33,.48,.66,.83,.99,1.06s.71,.35,1.14,.35c.59,0,1.06-.17,1.4-.52,.35-.35,.52-.81,.52-1.38,0-.45-.14-.83-.42-1.13-.28-.3-.72-.56-1.31-.79l-.77-.3c-1.63-.63-2.45-1.69-2.45-3.18,0-.43,.08-.83,.25-1.21,.17-.38,.41-.7,.72-.98,.31-.28,.67-.49,1.08-.65,.41-.16,.87-.24,1.36-.24,.92,0,1.79,.29,2.64,.87l-.58,1.56c-.95-.58-1.71-.87-2.28-.87-.48,0-.86,.13-1.15,.4-.29,.27-.43,.64-.43,1.1,0,.36,.13,.66,.38,.89,.25,.23,.63,.46,1.13,.69l.79,.36Z"/><path class="g" d="M99.88,98.03c.89,.4,1.55,.86,1.97,1.37,.42,.51,.63,1.21,.63,2.09,0,.5-.09,.96-.26,1.37-.18,.41-.42,.77-.73,1.07-.31,.3-.69,.53-1.13,.7-.44,.16-.92,.24-1.45,.24-1.46,0-2.54-.62-3.24-1.86l1.22-1.04c.33,.48,.66,.83,.99,1.06s.71,.35,1.14,.35c.59,0,1.06-.17,1.4-.52,.35-.35,.52-.81,.52-1.38,0-.45-.14-.83-.42-1.13-.28-.3-.72-.56-1.31-.79l-.77-.3c-1.63-.63-2.45-1.69-2.45-3.18,0-.43,.08-.83,.25-1.21,.17-.38,.41-.7,.72-.98,.31-.28,.67-.49,1.08-.65,.41-.16,.87-.24,1.36-.24,.92,0,1.79,.29,2.64,.87l-.58,1.56c-.95-.58-1.71-.87-2.28-.87-.48,0-.86,.13-1.15,.4-.29,.27-.43,.64-.43,1.1,0,.36,.13,.66,.38,.89,.25,.23,.63,.46,1.13,.69l.79,.36Z"/><path class="g" d="M108.3,104.62v-11.32h1.71v11.32h-1.71Z"/><path class="g" d="M119.5,104.62l-4.69-8.17v8.17h-1.6v-11.32h1.49l4.74,8.25v-8.25h1.64v11.32h-1.58Z"/><path class="g" d="M134.93,103.78c-.48,.39-.98,.67-1.51,.85s-1.1,.26-1.73,.26c-.69,0-1.33-.14-1.93-.43s-1.11-.69-1.55-1.21-.78-1.13-1.04-1.85c-.25-.72-.38-1.51-.38-2.36,0-1.05,.2-2.01,.59-2.86,.4-.85,.96-1.56,1.69-2.13,.88-.67,1.85-1,2.92-1,.58,0,1.1,.06,1.58,.18,.48,.12,.93,.32,1.36,.59l-.45,1.58c-.84-.5-1.68-.75-2.5-.75-.48,0-.93,.11-1.35,.32-.42,.21-.79,.51-1.1,.89s-.56,.84-.74,1.38c-.18,.54-.27,1.13-.27,1.77s.09,1.21,.26,1.73c.17,.53,.41,.98,.72,1.37,.3,.38,.65,.68,1.05,.89,.4,.21,.82,.32,1.27,.32,.5,0,.98-.08,1.42-.25,.44-.17,.91-.42,1.38-.76l.32,1.47Z"/><path class="g" d="M147.01,98.97c0,.8-.14,1.56-.41,2.27-.27,.71-.66,1.35-1.16,1.91-.51,.56-1.09,1-1.72,1.29-.63,.29-1.31,.44-2.02,.44-1.46,0-2.7-.58-3.75-1.73-.49-.56-.87-1.2-1.13-1.9-.26-.7-.4-1.46-.4-2.28s.13-1.56,.4-2.28c.26-.72,.65-1.36,1.15-1.92,.51-.57,1.09-1,1.72-1.29,.63-.29,1.31-.44,2.02-.44,1.44,0,2.69,.58,3.73,1.73,.5,.56,.89,1.21,1.16,1.92,.27,.71,.41,1.47,.41,2.28Zm-1.73-.02c0-.63-.09-1.21-.28-1.73s-.45-.99-.77-1.37-.71-.69-1.14-.9c-.43-.21-.89-.32-1.36-.32s-.95,.11-1.39,.32c-.43,.21-.81,.51-1.14,.89-.33,.38-.58,.84-.77,1.37-.19,.53-.28,1.11-.28,1.74s.09,1.23,.28,1.77,.45,1,.77,1.39c.33,.39,.71,.69,1.14,.91,.43,.22,.89,.33,1.39,.33s.93-.11,1.35-.33c.43-.22,.8-.53,1.13-.92,.33-.4,.59-.86,.78-1.39,.19-.53,.29-1.12,.29-1.76Z"/><path class="g" d="M157.97,104.62v-8.19l-3.03,8.21h-1.04l-3.05-8.21v8.19h-1.6v-11.32h2.02l3.14,8.59,3.14-8.59h2.02v11.32h-1.6Z"/><path class="g" d="M165.05,93.31c1.34,0,2.36,.28,3.06,.84,.7,.56,1.05,1.37,1.05,2.42,0,.49-.1,.94-.29,1.34-.19,.4-.47,.75-.83,1.05-.36,.29-.79,.52-1.29,.68-.5,.16-1.07,.24-1.69,.24h-.74v4.76h-1.6v-11.32h2.34Zm-.26,5.16c1.81,0,2.71-.63,2.71-1.89,0-.65-.22-1.12-.67-1.42-.45-.3-1.13-.45-2.04-.45h-.47v3.77h.47Z"/><path class="g" d="M179.38,99.97c0,1.57-.38,2.78-1.13,3.63-.75,.85-1.81,1.28-3.16,1.28s-2.36-.42-3.09-1.27-1.09-2.06-1.09-3.64v-6.67h1.58v6.67c0,2.28,.88,3.43,2.65,3.43s2.66-1.14,2.66-3.43v-6.67h1.58v6.67Z"/><path class="g" d="M186.2,94.64v9.98h-1.66v-9.98h-3.16v-1.34h8v1.34h-3.18Z"/><path class="g" d="M191.17,104.62v-11.32h1.71v11.32h-1.71Z"/><path class="g" d="M202.37,104.62l-4.69-8.17v8.17h-1.6v-11.32h1.49l4.74,8.25v-8.25h1.64v11.32h-1.58Z"/><path class="g" d="M214.91,103.81c-.97,.72-2.06,1.07-3.28,1.07-1.1,0-2.11-.33-3.01-.98-.75-.55-1.34-1.25-1.75-2.09-.41-.84-.62-1.77-.62-2.79,0-.87,.15-1.68,.46-2.43,.31-.75,.7-1.36,1.18-1.83,.61-.59,1.24-1.03,1.87-1.31,.63-.28,1.33-.42,2.08-.42,1.06,0,2.04,.24,2.94,.72l-.56,1.56c-.92-.44-1.74-.66-2.47-.66-.53,0-1.02,.11-1.48,.33-.46,.22-.86,.52-1.2,.91-.34,.39-.61,.85-.81,1.37s-.3,1.1-.3,1.71,.1,1.21,.3,1.76c.2,.55,.47,1.02,.81,1.41s.73,.71,1.18,.93,.91,.34,1.4,.34c.54,0,1.11-.11,1.71-.34v-2.98h-1.19v-1.51h2.73v5.2Z"/></g><g><path class="f" d="M12.5,17.78v17H29.4v7.4H12.5v28H4V10.08h31.2v7.7H12.5Z"/><path class="f" d="M63.71,70.19v-6.4h-.2c-1.73,2.6-3.62,4.52-5.65,5.75-2.03,1.23-4.45,1.85-7.25,1.85-4.67,0-8.4-1.63-11.2-4.9-2.8-3.27-4.2-7.73-4.2-13.4V27.68h8.2v24.4c0,4,.78,7.02,2.35,9.05,1.57,2.03,3.85,3.05,6.85,3.05,4.2,0,7.53-2.17,10-6.5V27.68h8.2v42.5h-7.1Z"/><path class="f" d="M94.83,70.19c-.87,.2-1.68,.37-2.45,.5-.77,.13-1.52,.2-2.25,.2-6,0-9-3.73-9-11.2v-26.3h-5.2v-5.7h5.2V12.98h8.2v14.7h5.3v5.7h-5.3v26.3c0,3.2,1.63,4.8,4.9,4.8h.6v5.7Z"/><path class="f" d="M128.45,70.19v-6.4h-.2c-1.73,2.6-3.62,4.52-5.65,5.75-2.03,1.23-4.45,1.85-7.25,1.85-4.67,0-8.4-1.63-11.2-4.9-2.8-3.27-4.2-7.73-4.2-13.4V27.68h8.2v24.4c0,4,.78,7.02,2.35,9.05,1.57,2.03,3.85,3.05,6.85,3.05,4.2,0,7.53-2.17,10-6.5V27.68h8.2v42.5h-7.1Z"/><path class="f" d="M163.39,36.08c-1.33-.87-2.67-1.3-4-1.3-3.34,0-6.27,2.43-8.8,7.3v28.1h-8.2V27.68h7.1v8.3h.2c1.67-3.2,3.3-5.58,4.9-7.15,1.6-1.57,3.33-2.35,5.2-2.35,2.13,0,4.17,.9,6.1,2.7l-2.5,6.9Z"/><path class="f" d="M174.59,50.68c.13,4.4,1.28,7.82,3.45,10.25,2.17,2.43,4.95,3.65,8.35,3.65,4,0,7.67-1.36,11-4.1l3.9,4.9c-2.07,2.14-4.37,3.7-6.9,4.7-2.54,1-5.4,1.5-8.6,1.5-2.94,0-5.62-.53-8.05-1.6-2.43-1.07-4.52-2.57-6.25-4.5-1.73-1.93-3.1-4.28-4.1-7.05-1-2.77-1.5-5.82-1.5-9.15s.48-6.6,1.45-9.4c.97-2.8,2.3-5.2,4-7.2,1.7-2,3.75-3.53,6.15-4.6,2.4-1.07,5.03-1.6,7.9-1.6,2.6,0,5,.48,7.2,1.45,2.2,.97,4.1,2.37,5.7,4.2s2.83,4.05,3.7,6.65c.87,2.6,1.3,5.5,1.3,8.7v3.2h-28.7Zm20.7-5.8c-.27-3.67-1.27-6.48-3.02-8.45-1.74-1.97-4.05-2.95-6.93-2.95s-5.36,1-7.24,3c-1.87,2-2.98,4.8-3.32,8.4h20.5Z"/><path class="h" d="M220.36,17.18v53.01h-8.8V17.18h-16.8v-7.1h42.51v7.1h-16.9Z"/><path class="h" d="M237.42,50.68c.13,4.4,1.28,7.82,3.45,10.25,2.17,2.43,4.95,3.65,8.35,3.65,4,0,7.67-1.36,11-4.1l3.9,4.9c-2.07,2.14-4.37,3.7-6.9,4.7-2.54,1-5.4,1.5-8.6,1.5-2.94,0-5.62-.53-8.05-1.6-2.43-1.07-4.52-2.57-6.25-4.5-1.73-1.93-3.1-4.28-4.1-7.05-1-2.77-1.5-5.82-1.5-9.15s.48-6.6,1.45-9.4c.97-2.8,2.3-5.2,4-7.2,1.7-2,3.75-3.53,6.15-4.6,2.4-1.07,5.03-1.6,7.9-1.6,2.6,0,5,.48,7.2,1.45,2.2,.97,4.1,2.37,5.7,4.2,1.6,1.83,2.83,4.05,3.7,6.65,.87,2.6,1.3,5.5,1.3,8.7v3.2h-28.7Zm20.7-5.8c-.27-3.67-1.27-6.48-3.02-8.45-1.74-1.97-4.05-2.95-6.93-2.95s-5.36,1-7.24,3c-1.87,2-2.98,4.8-3.32,8.4h20.5Z"/><path class="h" d="M303.95,66.75c-3.67,3.22-8.04,4.83-13.1,4.83-2.8,0-5.4-.53-7.8-1.6-2.4-1.07-4.48-2.58-6.25-4.55-1.77-1.97-3.13-4.32-4.1-7.05-.97-2.73-1.45-5.77-1.45-9.1s.53-6.3,1.6-9.1c1.07-2.8,2.55-5.22,4.45-7.25,1.9-2.03,4.12-3.62,6.65-4.75,2.53-1.13,5.27-1.7,8.2-1.7,4.4,0,8.33,1.13,11.8,3.4l-3.6,7c-2.53-1.8-5.27-2.7-8.2-2.7-1.73,0-3.34,.37-4.8,1.11-1.47,.74-2.75,1.76-3.85,3.06-1.1,1.3-1.97,2.89-2.6,4.77-.63,1.87-.95,3.91-.95,6.12,0,4.62,1.08,8.26,3.25,10.94,2.17,2.67,5.02,4.01,8.55,4.01,3.13,0,6.07-1.03,8.8-3.1l3.4,5.67Z"/><path class="h" d="M336.68,70.19v-24.3c0-8.13-3.19-12.2-9.55-12.2-4.09,0-7.37,2.1-9.85,6.3v30.2h-8.2V4.08h8.2v29h.2c3.2-4.4,7.13-6.6,11.8-6.6s8.4,1.63,11.2,4.9c2.8,3.27,4.2,7.77,4.2,13.5v25.3h-8Z"/></g></g></svg>