<svg width="97" height="96" viewBox="0 0 97 96" fill="none" xmlns="http://www.w3.org/2000/svg">
<path fill-rule="evenodd" clip-rule="evenodd" d="M47.9766 0.172224C58.7189 1.10367 67.1033 8.37407 75.1933 15.7308C84.1005 23.8308 95.5888 31.5848 95.9891 43.8333C96.3948 56.2459 88.2935 67.0047 80 76C71.3779 85.3516 60.4432 94.9022 47.9766 95.9082C34.9216 96.9618 22.945 88.7951 13.9212 78.9971C5.13724 69.4595 -0.339153 56.9898 0.0163229 43.8333C0.362796 31.0101 6.45071 19.0621 15.7698 10.5783C24.5414 2.59303 36.3236 -0.83818 47.9766 0.172224Z" fill="#2000E5"/>
<path fill-rule="evenodd" clip-rule="evenodd" d="M47.9766 0.172224C58.7189 1.10367 67.1033 8.37407 75.1933 15.7308C84.1005 23.8308 95.5888 31.5848 95.9891 43.8333C96.3948 56.2459 88.2935 67.0047 80 76C71.3779 85.3516 60.4432 94.9022 47.9766 95.9082C34.9216 96.9618 22.945 88.7951 13.9212 78.9971C5.13724 69.4595 -0.339153 56.9898 0.0163229 43.8333C0.362796 31.0101 6.45071 19.0621 15.7698 10.5783C24.5414 2.59303 36.3236 -0.83818 47.9766 0.172224Z" fill="url(#paint0_linear)"/>
<defs>
<linearGradient id="paint0_linear" x1="103.225" y1="-0.000103267" x2="-6.51924" y2="2.13713" gradientUnits="userSpaceOnUse">
<stop stop-color="white" stop-opacity="0.1"/>
<stop offset="1" stop-color="#7100C9"/>
</linearGradient>
</defs>
</svg>
