<?xml version="1.0" encoding="UTF-8" standalone="no"?>
<svg
   width="97"
   height="96"
   viewBox="0 0 97 96"
   fill="none"
   version="1.1"
   id="svg13"
   sodipodi:docname="icon-background-filetext.svg"
   inkscape:version="1.1 (c68e22c387, 2021-05-23)"
   xmlns:inkscape="http://www.inkscape.org/namespaces/inkscape"
   xmlns:sodipodi="http://sodipodi.sourceforge.net/DTD/sodipodi-0.dtd"
   xmlns="http://www.w3.org/2000/svg"
   xmlns:svg="http://www.w3.org/2000/svg">
  <sodipodi:namedview
     id="namedview15"
     pagecolor="#ffffff"
     bordercolor="#666666"
     borderopacity="1.0"
     inkscape:pageshadow="2"
     inkscape:pageopacity="0.0"
     inkscape:pagecheckerboard="0"
     showgrid="false"
     inkscape:zoom="4.2864584"
     inkscape:cx="68.238152"
     inkscape:cy="64.972052"
     inkscape:window-width="1912"
     inkscape:window-height="964"
     inkscape:window-x="1924"
     inkscape:window-y="28"
     inkscape:window-maximized="0"
     inkscape:current-layer="svg13" />
  <path
     fill-rule="evenodd"
     clip-rule="evenodd"
     d="M47.9766 0.172224C58.7189 1.10367 67.1033 8.37407 75.1933 15.7308C84.1005 23.8308 95.5888 31.5848 95.9891 43.8333C96.3948 56.2459 88.2935 67.0047 80 76C71.3779 85.3516 60.4432 94.9022 47.9766 95.9082C34.9216 96.9618 22.945 88.7951 13.9212 78.9971C5.13724 69.4595 -0.339153 56.9898 0.0163229 43.8333C0.362796 31.0101 6.45071 19.0621 15.7698 10.5783C24.5414 2.59303 36.3236 -0.83818 47.9766 0.172224Z"
     fill="#2000E5"
     id="path2" />
  <path
     fill-rule="evenodd"
     clip-rule="evenodd"
     d="M47.9766 0.172224C58.7189 1.10367 67.1033 8.37407 75.1933 15.7308C84.1005 23.8308 95.5888 31.5848 95.9891 43.8333C96.3948 56.2459 88.2935 67.0047 80 76C71.3779 85.3516 60.4432 94.9022 47.9766 95.9082C34.9216 96.9618 22.945 88.7951 13.9212 78.9971C5.13724 69.4595 -0.339153 56.9898 0.0163229 43.8333C0.362796 31.0101 6.45071 19.0621 15.7698 10.5783C24.5414 2.59303 36.3236 -0.83818 47.9766 0.172224Z"
     fill="url(#paint0_linear)"
     id="path4" />
  <defs
     id="defs11">
    <linearGradient
       id="paint0_linear"
       x1="103.225"
       y1="-0.000103267"
       x2="-6.51924"
       y2="2.13713"
       gradientUnits="userSpaceOnUse">
      <stop
         stop-color="white"
         stop-opacity="0.1"
         id="stop6" />
      <stop
         offset="1"
         stop-color="#7100C9"
         id="stop8" />
    </linearGradient>
  </defs>
  <g
     style="fill:none;stroke:#ffffff;stroke-width:2;stroke-linecap:round;stroke-linejoin:round"
     id="g853"
     transform="matrix(2.4545455,0,0,2.4545455,18.547317,18.545436)">
    <path
       d="M 14,2 H 6 A 2,2 0 0 0 4,4 v 16 a 2,2 0 0 0 2,2 h 12 a 2,2 0 0 0 2,-2 V 8 Z"
       id="path832" />
    <polyline
       points="14 2 14 8 20 8"
       id="polyline834" />
    <line
       x1="16"
       y1="13"
       x2="8"
       y2="13"
       id="line836" />
    <line
       x1="16"
       y1="17"
       x2="8"
       y2="17"
       id="line838" />
    <polyline
       points="10 9 9 9 8 9"
       id="polyline840" />
  </g>
</svg>
