<?xml version="1.0" encoding="UTF-8" standalone="no"?>
<svg
   width="96"
   height="97"
   viewBox="0 0 96 97"
   fill="none"
   version="1.1"
   id="svg13"
   sodipodi:docname="icon-background-target.svg"
   inkscape:version="1.1 (c68e22c387, 2021-05-23)"
   xmlns:inkscape="http://www.inkscape.org/namespaces/inkscape"
   xmlns:sodipodi="http://sodipodi.sourceforge.net/DTD/sodipodi-0.dtd"
   xmlns="http://www.w3.org/2000/svg"
   xmlns:svg="http://www.w3.org/2000/svg">
  <sodipodi:namedview
     id="namedview15"
     pagecolor="#ffffff"
     bordercolor="#666666"
     borderopacity="1.0"
     inkscape:pageshadow="2"
     inkscape:pageopacity="0.0"
     inkscape:pagecheckerboard="0"
     showgrid="false"
     inkscape:zoom="5.999473"
     inkscape:cx="42.420393"
     inkscape:cy="55.421535"
     inkscape:window-width="1912"
     inkscape:window-height="964"
     inkscape:window-x="1924"
     inkscape:window-y="28"
     inkscape:window-maximized="0"
     inkscape:current-layer="svg13" />
  <path
     fill-rule="evenodd"
     clip-rule="evenodd"
     d="M42.1969 1.00835C54.1534 0.649826 68.7032 3.72763 77.633 11.5C87.4753 20.0666 94.5058 34.9089 95.8599 47.7157C97.2782 61.1287 87.6941 73.084 77.633 82.3198C67.9166 91.239 55.5241 97.4324 42.1969 96.9763C29.2648 96.5338 17.4308 89.6951 9.16019 79.9767C1.58327 71.0734 -0.892583 59.2359 0.274834 47.7157C1.32871 37.316 8.05599 29.1237 15.1099 21.2647C22.9024 12.5826 30.3801 1.36268 42.1969 1.00835Z"
     fill="#2000E5"
     id="path2" />
  <path
     fill-rule="evenodd"
     clip-rule="evenodd"
     d="M42.1969 1.00835C54.1534 0.649826 68.7032 3.72763 77.633 11.5C87.4753 20.0666 94.5058 34.9089 95.8599 47.7157C97.2782 61.1287 87.6941 73.084 77.633 82.3198C67.9166 91.239 55.5241 97.4324 42.1969 96.9763C29.2648 96.5338 17.4308 89.6951 9.16019 79.9767C1.58327 71.0734 -0.892583 59.2359 0.274834 47.7157C1.32871 37.316 8.05599 29.1237 15.1099 21.2647C22.9024 12.5826 30.3801 1.36268 42.1969 1.00835Z"
     fill="url(#paint0_linear)"
     id="path4" />
  <defs
     id="defs11">
    <linearGradient
       id="paint0_linear"
       x1="103.225"
       y1="0.999557"
       x2="-6.51924"
       y2="3.13679"
       gradientUnits="userSpaceOnUse">
      <stop
         stop-color="white"
         stop-opacity="0.1"
         id="stop6" />
      <stop
         offset="1"
         stop-color="#7100C9"
         id="stop8" />
    </linearGradient>
  </defs>
  <g
     style="fill:none;stroke:#ffffff;stroke-width:2;stroke-linecap:round;stroke-linejoin:round"
     id="g847"
     transform="matrix(2.4545455,0,0,2.4545455,18.545444,19.535652)">
    <circle
       cx="12"
       cy="12"
       r="10"
       id="circle832" />
    <circle
       cx="12"
       cy="12"
       r="6"
       id="circle834" />
    <circle
       cx="12"
       cy="12"
       r="2"
       id="circle836" />
  </g>
</svg>
