<svg width="35" height="35" viewBox="0 0 48 48" fill="none" xmlns="http://www.w3.org/2000/svg"><path d="M48 14.71a2.325 2.325 0 00-2.323-2.323 2.3 2.3 0 00-.757.137l-3.47-4.336c.222-.356.356-.771.356-1.22a2.325 2.325 0 00-2.322-2.323c-.651 0-1.238.271-1.66.703L31.72 2.532c.006-.07.02-.137.02-.21A2.325 2.325 0 0029.42 0a2.32 2.32 0 00-2.18 1.548h-8.8A2.32 2.32 0 0016.258 0a2.325 2.325 0 00-2.323 2.323c0 .096.017.188.028.281l-3.84 1.92a2.311 2.311 0 00-1.608-.653 2.325 2.325 0 00-2.322 2.322c0 .45.134.865.355 1.22L3.08 11.75a2.299 2.299 0 00-.757-.137A2.325 2.325 0 000 13.935c0 1.008.65 1.86 1.549 2.18v4.931A2.318 2.318 0 000 23.226a2.325 2.325 0 002.323 2.322c.86 0 1.603-.475 2.005-1.171l4.226.768a2.32 2.32 0 002.285 1.951c.03 0 .06-.007.091-.009l1.477 3.694a2.307 2.307 0 00-.794 1.735 2.325 2.325 0 002.323 2.322c.778 0 1.465-.389 1.886-.978l6.644 1.899c.06.943.68 1.728 1.534 2.033v5.705a2.32 2.32 0 00-1.548 2.18A2.325 2.325 0 0024.774 48a2.325 2.325 0 002.323-2.322 2.32 2.32 0 00-1.549-2.18v-5.706a2.32 2.32 0 001.549-2.18c0-.741-.356-1.395-.9-1.821l.925-2.774 6.947 2.315c.019.989.658 1.821 1.544 2.137v8.028a2.32 2.32 0 00-1.549 2.18 2.325 2.325 0 002.323 2.322 2.325 2.325 0 002.322-2.322 2.32 2.32 0 00-1.548-2.18V35.47a2.32 2.32 0 001.548-2.18c0-.283-.058-.55-.15-.801l5.94-4.95c.346.205.746.331 1.178.331A2.325 2.325 0 0048 25.549a2.32 2.32 0 00-1.549-2.18v-6.48A2.318 2.318 0 0048 14.71zm-8.516-8.517a.775.775 0 11-.002 1.55.775.775 0 01.002-1.55zM38.383 9c.329.18.7.29 1.1.29.267 0 .519-.054.757-.137l3.47 4.337c-.222.355-.355.77-.355 1.22 0 .124.017.244.037.364l-5.485 2.992-3.994-3.329c.093-.251.151-.52.151-.802 0-.314-.064-.614-.178-.888L38.383 9zm-9.738 12.677c-.358 0-.692.088-.995.233l-3.28-3.28 5.79-3.003c.417.388.97.63 1.582.63.432 0 .831-.125 1.178-.331l3.525 2.937-6.258 3.413a2.302 2.302 0 00-1.542-.599zM29.42 24a.775.775 0 11-1.55-.002.775.775 0 011.55.002zm-11.705-8.526l1.3 4.188-6.594 3.42a2.321 2.321 0 00-.991-.546l-1.073-8.228 5.305-.265a2.321 2.321 0 002.053 1.43zm-.682-2.313a.775.775 0 111.55.002.775.775 0 01-1.55-.002zm2.448 8.004l1.963 6.328-8.286-2.763c-.002-.093-.016-.182-.028-.272l6.35-3.293zm-.006-5.24l2.306 2.304-1.37.71-.936-3.015zm.423-1.77c.145-.302.232-.636.232-.994 0-.33-.071-.643-.195-.927l3.676-3.43 5.925 4.443c-.069.22-.116.447-.116.688 0 .109.018.212.032.316l-6.23 3.23-3.324-3.325zm11.07-.22a.775.775 0 111.55.002.775.775 0 01-1.55-.002zm6.758 5.994l5.547 4.623-12.02-1.093 6.473-3.53zm-8.306-18.38a.775.775 0 11-.001 1.55.775.775 0 01.001-1.55zm-1.064 2.826c.32.166.679.27 1.064.27.651 0 1.238-.27 1.66-.704l6.103 2.817c-.006.07-.02.138-.02.21 0 .315.063.614.177.888l-4.496 4.047c-.33-.18-.701-.29-1.101-.29-.476 0-.918.145-1.286.39l-5.697-4.272 3.596-3.356zM27.24 3.097c.019.05.032.103.053.151L23.5 6.786l-4.92-3.69h8.658zM16.26 1.548a.775.775 0 11-.002 1.55.775.775 0 01.001-1.55zm-5.42 4.645c0-.096-.017-.188-.029-.28l3.84-1.92a2.314 2.314 0 002.894.261l4.807 3.605-3.48 3.249a2.295 2.295 0 00-1.064-.27 2.318 2.318 0 00-2.215 1.658l-5.438.272-.588-4.514a2.316 2.316 0 001.273-2.06zM8.516 5.42a.775.775 0 11-.001 1.55.775.775 0 01.001-1.55zM7.76 8.38c.09.03.178.064.272.084l.571 4.383-4.133.207a2.304 2.304 0 00-.179-.338L7.76 8.38zm-5.436 4.782a.775.775 0 11-.002 1.55.775.775 0 01.002-1.55zm0 10.839a.775.775 0 11.001-1.55.775.775 0 01-.001 1.55zm6.51-.377l-4.225-.768a2.318 2.318 0 00-1.51-1.81v-4.93a2.32 2.32 0 001.44-1.515l4.266-.214 1.08 8.276c-.445.202-.808.54-1.05.96zm2.006 1.925a.775.775 0 11.002-1.55.775.775 0 01-.002 1.55zm3.097 7.742a.775.775 0 11.001-1.55.775.775 0 01-.001 1.55zm8.952.978l-6.644-1.899a2.32 2.32 0 00-2.308-2.176c-.031 0-.06.008-.092.01l-1.477-3.694a2.38 2.38 0 00.294-.312l9.348 3.116 1.38 4.447a2.358 2.358 0 00-.5.508zm1.886 12.183a.775.775 0 11.002-1.55.775.775 0 01-.002 1.55zm0-10.065a.775.775 0 11.002-1.55.775.775 0 01-.002 1.55zm.026-3.3l-.983-3.17 1.836.612-.852 2.557zm1.343-4.027l-2.89-.964-2.376-7.653 2.052-1.064 3.627 3.627a2.284 2.284 0 00-.233.995c0 .741.356 1.396.9 1.821l-1.08 3.238zM36.387 46.45a.775.775 0 11.002-1.55.775.775 0 01-.002 1.55zm0-12.387a.775.775 0 11.002-1.55.775.775 0 01-.002 1.55zm1.178-2.765a2.305 2.305 0 00-1.178-.332 2.31 2.31 0 00-1.822.9l-6.953-2.318 1.076-3.232a2.317 2.317 0 002.06-1.349l12.686 1.153c.02.077.044.153.072.228l-5.94 4.95zm1.622-12.168l4.948-2.699c.222.2.481.355.769.457v6.479a2.331 2.331 0 00-.405.19l-5.312-4.427zm6.49 7.191a.775.775 0 11.002-1.55.775.775 0 01-.002 1.55zm0-10.838a.775.775 0 11.002-1.55.775.775 0 01-.002 1.55z" fill="#F9F9F9"></path></svg>