<svg width="70" height="70" viewBox="0 0 40 40" fill="none" xmlns="http://www.w3.org/2000/svg">
<path d="M33.5 25H31.5L27 37H29L30.125 34H34.875L36 37H38L33.5 25ZM30.875 32L32.5 27.665L34.1251 32H30.875Z" fill="#2000E5"/>
<path d="M33.5 25H31.5L27 37H29L30.125 34H34.875L36 37H38L33.5 25ZM30.875 32L32.5 27.665L34.1251 32H30.875Z" fill="url(#paint0_linear)"/>
<path d="M11.7753 15.7677L9.68351 13.7006L9.70822 13.6759C11.1412 12.0782 12.1623 10.2418 12.7635 8.29823H15.1765V6.64707H9.41175V5H7.76468V6.64707H2V8.28588H11.1988C10.6429 9.87528 9.77408 11.3823 8.5882 12.7C7.82231 11.8477 7.18819 10.9212 6.68585 9.94117H5.03882C5.63998 11.2835 6.46353 12.5518 7.49292 13.6965L3.30528 17.8347L4.47058 19L8.58823 14.8823L11.1494 17.4435L11.7753 15.7677Z" fill="#2000E5"/>
<path d="M11.7753 15.7677L9.68351 13.7006L9.70822 13.6759C11.1412 12.0782 12.1623 10.2418 12.7635 8.29823H15.1765V6.64707H9.41175V5H7.76468V6.64707H2V8.28588H11.1988C10.6429 9.87528 9.77408 11.3823 8.5882 12.7C7.82231 11.8477 7.18819 10.9212 6.68585 9.94117H5.03882C5.63998 11.2835 6.46353 12.5518 7.49292 13.6965L3.30528 17.8347L4.47058 19L8.58823 14.8823L11.1494 17.4435L11.7753 15.7677Z" fill="url(#paint1_linear)"/>
<path d="M4.55854 27.9582L8 23.0432L12.9149 26.4847" stroke="#2000E5" stroke-width="2" stroke-linecap="round" stroke-linejoin="round"/>
<path d="M4.55854 27.9582L8 23.0432L12.9149 26.4847" stroke="url(#paint2_linear)" stroke-width="2" stroke-linecap="round" stroke-linejoin="round"/>
<path d="M8 23.0432L8.65004 26.1597L9.30007 29.2761C9.56369 30.7734 10.2023 32.1795 11.1563 33.3632C12.1104 34.5469 13.3487 35.4697 14.7558 36.0453C16.1629 36.621 17.6929 36.8309 19.203 36.6553C20.7131 36.4798 22.1542 35.9245 23.3917 35.0414" stroke="#2000E5" stroke-width="2" stroke-linecap="round" stroke-linejoin="round"/>
<path d="M8 23.0432L8.65004 26.1597L9.30007 29.2761C9.56369 30.7734 10.2023 32.1795 11.1563 33.3632C12.1104 34.5469 13.3487 35.4697 14.7558 36.0453C16.1629 36.621 17.6929 36.8309 19.203 36.6553C20.7131 36.4798 22.1542 35.9245 23.3917 35.0414" stroke="url(#paint3_linear)" stroke-width="2" stroke-linecap="round" stroke-linejoin="round"/>
<path d="M37.4067 13.9962L33.9653 18.9111L29.0504 15.4697" stroke="#2000E5" stroke-width="2" stroke-linecap="round" stroke-linejoin="round"/>
<path d="M37.4067 13.9962L33.9653 18.9111L29.0504 15.4697" stroke="url(#paint4_linear)" stroke-width="2" stroke-linecap="round" stroke-linejoin="round"/>
<path d="M18.5736 6.91297C19.8111 6.02985 21.2521 5.47461 22.7623 5.29905C24.2724 5.1235 25.8024 5.33335 27.2095 5.90903C28.6166 6.48471 29.8549 7.40745 30.8089 8.59116C31.763 9.77487 32.4016 11.181 32.6652 12.6782L33.9653 18.9111" stroke="#2000E5" stroke-width="2" stroke-linecap="round" stroke-linejoin="round"/>
<path d="M18.5736 6.91297C19.8111 6.02985 21.2521 5.47461 22.7623 5.29905C24.2724 5.1235 25.8024 5.33335 27.2095 5.90903C28.6166 6.48471 29.8549 7.40745 30.8089 8.59116C31.763 9.77487 32.4016 11.181 32.6652 12.6782L33.9653 18.9111" stroke="url(#paint5_linear)" stroke-width="2" stroke-linecap="round" stroke-linejoin="round"/>
<defs>
<linearGradient id="paint0_linear" x1="38.8279" y1="25" x2="26.2522" y2="25.2246" gradientUnits="userSpaceOnUse">
<stop stop-color="white" stop-opacity="0.1"/>
<stop offset="1" stop-color="#7100C9"/>
</linearGradient>
<linearGradient id="paint1_linear" x1="16.1681" y1="4.99998" x2="1.10455" y2="5.27621" gradientUnits="userSpaceOnUse">
<stop stop-color="white" stop-opacity="0.1"/>
<stop offset="1" stop-color="#7100C9"/>
</linearGradient>
<linearGradient id="paint2_linear" x1="13.2848" y1="26.7437" x2="7.58959" y2="22.919" gradientUnits="userSpaceOnUse">
<stop stop-color="white" stop-opacity="0.1"/>
<stop offset="1" stop-color="#7100C9"/>
</linearGradient>
<linearGradient id="paint3_linear" x1="25.1668" y1="35.0636" x2="6.2708" y2="23.3046" gradientUnits="userSpaceOnUse">
<stop stop-color="white" stop-opacity="0.1"/>
<stop offset="1" stop-color="#7100C9"/>
</linearGradient>
<linearGradient id="paint4_linear" x1="37.7766" y1="14.2552" x2="32.0814" y2="10.4305" gradientUnits="userSpaceOnUse">
<stop stop-color="white" stop-opacity="0.1"/>
<stop offset="1" stop-color="#7100C9"/>
</linearGradient>
<linearGradient id="paint5_linear" x1="39.1805" y1="14.0203" x2="20.2845" y2="2.26139" gradientUnits="userSpaceOnUse">
<stop stop-color="white" stop-opacity="0.1"/>
<stop offset="1" stop-color="#7100C9"/>
</linearGradient>
</defs>
</svg>
