<svg width="687" height="74" viewBox="0 0 687 74" fill="none" xmlns="http://www.w3.org/2000/svg">
<path d="M38.336 31.688H38.144L34.88 38.216L26.176 54.024L17.664 38.28L14.272 31.24H14.08V61H4.928V16.328H15.232L26.176 37.256H26.304L37.12 16.328H47.488V61H38.336V31.688ZM55.6375 61V53.256H61.3975V24.072H55.6375V16.328H76.8855V24.072H71.1255V53.256H76.8855V61H55.6375ZM103.365 24.968V61H93.6365V24.968H81.5405V16.328H115.461V24.968H103.365ZM117.705 46.088V36.872H136.713V46.088H117.705ZM141.388 61V53.256H147.148V24.072H141.388V16.328H162.636V24.072H156.876V53.256H162.636V61H141.388ZM170.741 16.328H192.437C196.149 16.328 199.029 17.3733 201.076 19.464C203.167 21.5547 204.213 24.328 204.213 27.784C204.213 29.4907 203.978 30.9413 203.509 32.136C203.082 33.3307 202.485 34.312 201.717 35.08C200.991 35.848 200.117 36.424 199.093 36.808C198.111 37.1493 197.045 37.3413 195.893 37.384V37.768C196.959 37.768 198.069 37.96 199.221 38.344C200.415 38.728 201.503 39.3467 202.485 40.2C203.466 41.0107 204.277 42.0773 204.917 43.4C205.599 44.7227 205.941 46.344 205.941 48.264C205.941 50.0133 205.642 51.6773 205.045 53.256C204.49 54.792 203.701 56.136 202.677 57.288C201.653 58.44 200.437 59.3573 199.029 60.04C197.621 60.68 196.085 61 194.421 61H170.741V16.328ZM180.469 52.808H191.669C192.949 52.808 193.951 52.4667 194.677 51.784C195.445 51.0587 195.829 50.056 195.829 48.776V46.6C195.829 45.32 195.445 44.3387 194.677 43.656C193.951 42.9307 192.949 42.568 191.669 42.568H180.469V52.808ZM180.469 34.632H190.133C191.413 34.632 192.415 34.2693 193.141 33.544C193.866 32.8187 194.229 31.816 194.229 30.536V28.616C194.229 27.336 193.866 26.3333 193.141 25.608C192.415 24.8827 191.413 24.52 190.133 24.52H180.469V34.632ZM246.836 31.688H246.644L243.38 38.216L234.676 54.024L226.164 38.28L222.772 31.24H222.58V61H213.428V16.328H223.732L234.676 37.256H234.804L245.62 16.328H255.988V61H246.836V31.688ZM288.863 61L277.599 16.328H281.695L291.231 56.264H291.423L301.983 16.328H306.655L317.087 56.264H317.279L327.135 16.328H331.103L319.455 61H314.975L304.287 20.616H304.159L293.343 61H288.863ZM360.48 61C359.072 61 358.048 60.6373 357.408 59.912C356.768 59.1867 356.405 58.2053 356.32 56.968V55.816H356C355.275 57.6507 354.08 59.1013 352.416 60.168C350.752 61.2347 348.64 61.768 346.08 61.768C342.624 61.768 339.957 60.936 338.08 59.272C336.203 57.5653 335.264 55.176 335.264 52.104C335.264 49.2027 336.288 46.8987 338.336 45.192C340.427 43.4853 343.84 42.632 348.576 42.632H356.128V38.792C356.128 33.3733 353.333 30.664 347.744 30.664C345.568 30.664 343.755 31.1333 342.304 32.072C340.853 32.968 339.68 34.2693 338.784 35.976L336.48 34.056C337.376 32.136 338.741 30.5573 340.576 29.32C342.453 28.0827 344.885 27.464 347.872 27.464C351.712 27.464 354.656 28.424 356.704 30.344C358.752 32.264 359.776 34.952 359.776 38.408V57.8H364.192V61H360.48ZM346.592 58.632C347.915 58.632 349.152 58.4613 350.304 58.12C351.456 57.7787 352.459 57.3093 353.312 56.712C354.208 56.072 354.891 55.3253 355.36 54.472C355.872 53.576 356.128 52.5733 356.128 51.464V45.384H348.448C345.163 45.384 342.773 45.9173 341.28 46.984C339.829 48.008 339.104 49.4373 339.104 51.272V52.808C339.104 54.728 339.787 56.1787 341.152 57.16C342.517 58.1413 344.331 58.632 346.592 58.632ZM377.459 61C376.136 61 375.134 60.6373 374.451 59.912C373.768 59.1867 373.427 58.2053 373.427 56.968V31.432H367.731V28.232H371.443C372.339 28.232 372.936 28.0613 373.235 27.72C373.576 27.336 373.747 26.6747 373.747 25.736V19.08H377.075V28.232H384.499V31.432H377.075V57.8H383.987V61H377.459ZM402.545 61.768C399.686 61.768 397.233 61.2347 395.185 60.168C393.179 59.1013 391.43 57.544 389.937 55.496L392.625 53.384C393.99 55.176 395.483 56.4987 397.105 57.352C398.726 58.2053 400.625 58.632 402.801 58.632C405.318 58.632 407.259 58.0987 408.625 57.032C409.99 55.9653 410.673 54.4293 410.673 52.424C410.673 50.6747 410.139 49.3093 409.073 48.328C408.049 47.304 406.342 46.6213 403.953 46.28L401.265 45.832C399.771 45.6187 398.406 45.2987 397.169 44.872C395.931 44.4453 394.865 43.8693 393.969 43.144C393.115 42.4187 392.433 41.544 391.921 40.52C391.451 39.4533 391.217 38.1733 391.217 36.68C391.217 35.144 391.494 33.8 392.049 32.648C392.646 31.496 393.435 30.536 394.417 29.768C395.398 29 396.571 28.424 397.937 28.04C399.302 27.656 400.774 27.464 402.353 27.464C405.083 27.464 407.323 27.9333 409.073 28.872C410.822 29.8107 412.315 31.0267 413.553 32.52L411.121 34.76C410.267 33.736 409.115 32.7973 407.665 31.944C406.257 31.048 404.422 30.6 402.161 30.6C399.814 30.6 397.979 31.112 396.657 32.136C395.377 33.16 394.737 34.6107 394.737 36.488C394.737 38.408 395.313 39.7947 396.465 40.648C397.659 41.5013 399.43 42.12 401.777 42.504L404.401 42.888C407.729 43.4 410.182 44.4027 411.761 45.896C413.382 47.3467 414.193 49.3947 414.193 52.04C414.193 55.112 413.147 57.5013 411.057 59.208C409.009 60.9147 406.171 61.768 402.545 61.768ZM435.413 61.768C433.237 61.768 431.274 61.384 429.525 60.616C427.775 59.848 426.282 58.7387 425.045 57.288C423.807 55.7947 422.847 53.9813 422.165 51.848C421.482 49.7147 421.141 47.304 421.141 44.616C421.141 41.928 421.482 39.5387 422.165 37.448C422.847 35.3147 423.807 33.5227 425.045 32.072C426.282 30.5787 427.775 29.448 429.525 28.68C431.274 27.8693 433.237 27.464 435.413 27.464C437.589 27.464 439.551 27.8693 441.301 28.68C443.05 29.448 444.543 30.5787 445.781 32.072C447.018 33.5227 447.978 35.3147 448.661 37.448C449.343 39.5387 449.685 41.928 449.685 44.616C449.685 47.304 449.343 49.7147 448.661 51.848C447.978 53.9813 447.018 55.7947 445.781 57.288C444.543 58.7387 443.05 59.848 441.301 60.616C439.551 61.384 437.589 61.768 435.413 61.768ZM435.413 58.504C438.613 58.504 441.13 57.5013 442.965 55.496C444.842 53.4907 445.781 50.5467 445.781 46.664V42.568C445.781 38.728 444.842 35.8053 442.965 33.8C441.13 31.752 438.613 30.728 435.413 30.728C432.213 30.728 429.674 31.7307 427.797 33.736C425.962 35.7413 425.045 38.6853 425.045 42.568V46.664C425.045 50.504 425.962 53.448 427.797 55.496C429.674 57.5013 432.213 58.504 435.413 58.504ZM458.952 61V28.232H462.6V33.416H462.792C463.517 31.7093 464.648 30.3013 466.184 29.192C467.72 28.04 469.811 27.464 472.456 27.464C475.955 27.464 478.664 28.552 480.584 30.728C482.547 32.8613 483.528 35.9333 483.528 39.944V61H479.88V40.584C479.88 37.256 479.155 34.7813 477.704 33.16C476.296 31.5387 474.227 30.728 471.496 30.728C470.344 30.728 469.235 30.8773 468.168 31.176C467.101 31.4747 466.141 31.9227 465.288 32.52C464.477 33.1173 463.816 33.8853 463.304 34.824C462.835 35.72 462.6 36.7653 462.6 37.96V61H458.952ZM538.492 61L533.628 47.112H514.62L509.756 61H505.916L521.724 16.328H526.652L542.524 61H538.492ZM524.22 19.976H523.964L515.58 43.784H532.604L524.22 19.976ZM548.22 61V57.8H554.748V19.528H548.22V16.328H565.116V19.528H558.588V57.8H565.116V61H548.22ZM590.586 61V16.328H594.426V57.608H614.138V61H590.586ZM644.105 61C642.697 61 641.673 60.6373 641.033 59.912C640.393 59.1867 640.03 58.2053 639.945 56.968V55.816H639.625C638.9 57.6507 637.705 59.1013 636.041 60.168C634.377 61.2347 632.265 61.768 629.705 61.768C626.249 61.768 623.582 60.936 621.705 59.272C619.828 57.5653 618.889 55.176 618.889 52.104C618.889 49.2027 619.913 46.8987 621.961 45.192C624.052 43.4853 627.465 42.632 632.201 42.632H639.753V38.792C639.753 33.3733 636.958 30.664 631.369 30.664C629.193 30.664 627.38 31.1333 625.929 32.072C624.478 32.968 623.305 34.2693 622.409 35.976L620.105 34.056C621.001 32.136 622.366 30.5573 624.201 29.32C626.078 28.0827 628.51 27.464 631.497 27.464C635.337 27.464 638.281 28.424 640.329 30.344C642.377 32.264 643.401 34.952 643.401 38.408V57.8H647.817V61H644.105ZM630.217 58.632C631.54 58.632 632.777 58.4613 633.929 58.12C635.081 57.7787 636.084 57.3093 636.937 56.712C637.833 56.072 638.516 55.3253 638.985 54.472C639.497 53.576 639.753 52.5733 639.753 51.464V45.384H632.073C628.788 45.384 626.398 45.9173 624.905 46.984C623.454 48.008 622.729 49.4373 622.729 51.272V52.808C622.729 54.728 623.412 56.1787 624.777 57.16C626.142 58.1413 627.956 58.632 630.217 58.632ZM655.327 13.64H658.975V33.48H659.167C659.978 31.6453 661.215 30.1947 662.879 29.128C664.543 28.0187 666.634 27.464 669.151 27.464C673.375 27.464 676.682 28.9573 679.071 31.944C681.46 34.9307 682.655 39.1547 682.655 44.616C682.655 50.0773 681.46 54.3013 679.071 57.288C676.682 60.2747 673.375 61.768 669.151 61.768C666.634 61.768 664.564 61.2347 662.943 60.168C661.322 59.0587 660.063 57.5867 659.167 55.752H658.975V61H655.327V13.64ZM668.319 58.504C671.604 58.504 674.164 57.4587 675.999 55.368C677.834 53.2773 678.751 50.4613 678.751 46.92V42.312C678.751 38.7707 677.834 35.9547 675.999 33.864C674.164 31.7733 671.604 30.728 668.319 30.728C667.039 30.728 665.823 30.92 664.671 31.304C663.562 31.6453 662.58 32.136 661.727 32.776C660.874 33.416 660.191 34.184 659.679 35.08C659.21 35.976 658.975 36.9573 658.975 38.024V51.016C658.975 52.168 659.21 53.2133 659.679 54.152C660.191 55.048 660.874 55.8373 661.727 56.52C662.58 57.16 663.562 57.6507 664.671 57.992C665.823 58.3333 667.039 58.504 668.319 58.504Z" fill="#F9F9F9"/>
</svg>
