<svg xmlns="http://www.w3.org/2000/svg" xmlns:xlink="http://www.w3.org/1999/xlink" version="1.1" id="Layer_1" x="0" y="0" viewBox="0 0 433 248.1" xml:space="preserve" enable-background="new 0 0 433 248.1"><style type="text/css">.st0{fill:#8a8c8c}.st1{fill:#555759}.st2{fill:#a41f35}</style><g><polygon class="st0" points="195.6,142.8 217.6,142.8 223.3,142.8 238.2,142.8 238.2,0 195.6,0"/></g><polygon class="st1" points="242.1,0 242.1,35.3 259.7,35.3 259.7,142.8 304.5,142.8 304.5,35.3 352.8,35.3 352.8,0"/><g><path class="st1" d="M133.7,224.8l-3.3,2c-0.6-1.1-1.2-1.8-1.8-2.1c-0.6-0.4-1.4-0.6-2.3-0.6c-1.1,0-2.1,0.3-2.9,1 c-0.8,0.6-1.1,1.4-1.1,2.4c0,1.3,1,2.4,3,3.2l2.7,1.1c2.2,0.9,3.8,2,4.9,3.3c1,1.3,1.5,2.9,1.5,4.8c0,2.5-0.8,4.6-2.5,6.2 c-1.7,1.7-3.8,2.5-6.3,2.5c-2.4,0-4.3-0.7-5.9-2.1c-1.5-1.4-2.5-3.4-2.9-5.9l4.2-0.9c0.2,1.6,0.5,2.7,1,3.3 c0.8,1.2,2.1,1.8,3.7,1.8c1.3,0,2.4-0.4,3.2-1.3c0.8-0.9,1.3-1.9,1.3-3.3c0-0.5-0.1-1-0.2-1.5c-0.1-0.4-0.4-0.8-0.7-1.2 c-0.3-0.4-0.7-0.7-1.2-1s-1.1-0.6-1.8-0.9l-2.6-1.1c-3.7-1.6-5.6-3.9-5.6-6.9c0-2.1,0.8-3.8,2.4-5.1c1.6-1.4,3.5-2.1,5.9-2.1 C129.5,220.3,131.9,221.8,133.7,224.8z"/><path class="st1" d="M158.6,234.3c0-3.9,1.4-7.2,4.2-9.9c2.8-2.8,6.2-4.1,10.1-4.1s7.2,1.4,10,4.2c2.8,2.8,4.2,6.1,4.2,10 s-1.4,7.3-4.2,10c-2.8,2.8-6.2,4.1-10.2,4.1c-3.5,0-6.7-1.2-9.5-3.7C160.2,242.3,158.6,238.7,158.6,234.3z M162.8,234.4 c0,3,1,5.5,3,7.4s4.3,2.9,7,2.9c2.9,0,5.3-1,7.3-3s3-4.4,3-7.3s-1-5.4-2.9-7.3c-1.9-2-4.3-3-7.2-3c-2.8,0-5.2,1-7.2,3 C163.8,229.1,162.8,231.5,162.8,234.4z"/><path class="st1" d="M209.5,241.5h-11.7l-3,6.6h-4.4l13.5-29.1l13.1,29.1h-4.6L209.5,241.5z M207.8,237.6l-4-9.3l-4.2,9.3H207.8z"/><path class="st1" d="M222.8,248.1v-29.2l19.9,20.9v-19h4.1v29L226.9,229v19.1H222.8z"/><path class="st1" d="M285,224.8l-3.3,2c-0.6-1.1-1.2-1.8-1.8-2.1c-0.6-0.4-1.4-0.6-2.3-0.6c-1.1,0-2.1,0.3-2.8,1 c-0.8,0.6-1.1,1.4-1.1,2.4c0,1.3,1,2.4,3,3.2l2.7,1.1c2.2,0.9,3.8,2,4.9,3.3c1,1.3,1.5,2.9,1.5,4.8c0,2.5-0.8,4.6-2.5,6.2 c-1.7,1.7-3.8,2.5-6.3,2.5c-2.4,0-4.3-0.7-5.9-2.1c-1.5-1.4-2.5-3.4-2.9-5.9l4.2-0.9c0.2,1.6,0.5,2.7,1,3.3 c0.8,1.2,2.1,1.8,3.7,1.8c1.3,0,2.4-0.4,3.2-1.3c0.9-0.9,1.3-1.9,1.3-3.3c0-0.5-0.1-1-0.2-1.5c-0.1-0.4-0.4-0.8-0.7-1.2 c-0.3-0.4-0.7-0.7-1.2-1s-1.1-0.6-1.8-0.9l-2.6-1.1c-3.7-1.6-5.6-3.9-5.6-6.9c0-2.1,0.8-3.8,2.4-5.1c1.6-1.4,3.5-2.1,5.9-2.1 C280.7,220.3,283.2,221.8,285,224.8z"/><path class="st1" d="M313,222.2v4.9c-2.4-2-4.8-3-7.4-3c-2.8,0-5.2,1-7.1,3c-1.9,2-2.9,4.5-2.9,7.4s1,5.3,2.9,7.3 c1.9,2,4.3,3,7.1,3c1.5,0,2.7-0.2,3.7-0.7c0.6-0.2,1.2-0.6,1.8-1s1.2-0.9,1.9-1.4v5c-2.4,1.3-4.8,2-7.4,2c-3.9,0-7.2-1.4-10-4.1 s-4.1-6.1-4.1-9.9c0-3.5,1.2-6.6,3.5-9.3c2.8-3.3,6.5-5,11-5C308.4,220.3,310.8,220.9,313,222.2z"/><path class="st1" d="M325.6,231.5h11.8v-10.7h4.1v27.3h-4.1v-12.8h-11.8v12.8h-4.1v-27.3h4.1V231.5z"/><path class="st1" d="M348.9,234.3c0-3.9,1.4-7.2,4.2-9.9c2.8-2.8,6.2-4.1,10.1-4.1c3.9,0,7.2,1.4,10,4.2c2.8,2.8,4.2,6.1,4.2,10 s-1.4,7.3-4.2,10c-2.8,2.8-6.2,4.1-10.2,4.1c-3.5,0-6.7-1.2-9.5-3.7C350.4,242.3,348.9,238.7,348.9,234.3z M353.1,234.4 c0,3,1,5.5,3,7.4s4.3,2.9,7,2.9c2.9,0,5.3-1,7.3-3s3-4.4,3-7.3s-1-5.4-2.9-7.3c-1.9-2-4.3-3-7.2-3c-2.8,0-5.3,1-7.2,3 C354,229.1,353.1,231.5,353.1,234.4z"/><path class="st1" d="M383.5,234.3c0-3.9,1.4-7.2,4.2-9.9c2.8-2.8,6.2-4.1,10.1-4.1c3.9,0,7.2,1.4,10,4.2c2.8,2.8,4.2,6.1,4.2,10 s-1.4,7.3-4.2,10c-2.8,2.8-6.2,4.1-10.2,4.1c-3.5,0-6.7-1.2-9.5-3.7C385,242.3,383.5,238.7,383.5,234.3z M387.6,234.4 c0,3,1,5.5,3,7.4s4.4,2.9,7,2.9c2.9,0,5.3-1,7.3-3s3-4.4,3-7.3s-1-5.4-2.9-7.3c-1.9-2-4.3-3-7.2-3c-2.8,0-5.3,1-7.2,3 C388.6,229.1,387.6,231.5,387.6,234.4z"/><path class="st1" d="M423.7,220.8v23.5h9.2v3.9h-13.3v-27.3h4.1V220.8z"/><path class="st1" d="M145.5,220.8v23.5h9.2v3.9h-13.3v-27.3h4.1V220.8z"/></g><g><g><g id="XMLID_72_"><path id="XMLID_91_" class="st1" d="M7.7,159.3h10.7l8.5,22.4l9-22.4h10.9l7.7,42H42.7l-3.5-24.2h-0.1L29,201.3h-4.3l-9.6-24.2 H15l-3.9,24.2H0L7.7,159.3z"/><path id="XMLID_88_" class="st1" d="M71.1,194l-2.9,7.3H56.6l16.2-42h11.9l15.8,42H88.9l-2.7-7.3H71.1z M78.7,172.3h-0.1 l-4.5,13.4h9.1L78.7,172.3z"/><path id="XMLID_86_" class="st1" d="M103.7,159.3h10.9l20,25.7h0.1v-25.7h10.9v42h-10.9l-20-25.7h-0.1v25.7h-10.9V159.3z"/><path id="XMLID_83_" class="st1" d="M163.3,194l-2.9,7.3h-11.6l16.2-42h11.9l15.8,42h-11.6l-2.7-7.3H163.3z M170.9,172.3h-0.1 l-4.5,13.4h9.1L170.9,172.3z"/><path id="XMLID_81_" class="st1" d="M236.3,177.9c-0.1,6.1-0.6,11.4-4.3,16.6c-4.1,5.7-10.3,8.2-17.3,8.2 c-13.2,0-22.4-9-22.4-22.2c0-13.6,9.2-22.6,22.8-22.6c8.6,0,15.3,3.9,18.9,11.8l-10.4,4.3c-1.5-4-4.7-6.7-9.1-6.7 c-7.2,0-10.9,6.9-10.9,13.3c0,6.5,3.9,13.1,11.1,13.1c4.7,0,8.4-2.5,8.8-7.3h-8.9v-8.6h21.7V177.9z"/><path id="XMLID_79_" class="st1" d="M252.4,168.6v7h12.3v9.3h-12.3v7.2h13v9.2h-24v-42h23.9v9.2L252.4,168.6L252.4,168.6z"/><path id="XMLID_77_" class="st1" d="M338.8,168.6v7h12.3v9.3h-12.3v7.2h13v9.2h-23.9v-42h23.9v9.2L338.8,168.6L338.8,168.6z"/><path id="XMLID_75_" class="st1" d="M358.5,159.3h10.9l20,25.7h0.1v-25.7h10.9v42h-10.9l-20-25.7h-0.1v25.7h-10.9V159.3z"/><path id="XMLID_73_" class="st1" d="M423.9,201.3H413v-32.8h-9v-9.2h29v9.2h-9L423.9,201.3L423.9,201.3z"/></g></g><path id="XMLID_70_" class="st1" d="M277,159.3h10.8l8.5,22.4l9-22.4h10.9l7.7,42h-11.8l-3.5-24.2h-0.1l-10.1,24.2h-4.3l-9.6-24.2 h-0.1l-3.9,24.2h-11.1L277,159.3z"/></g><polygon class="st2" points="191.7,71.4 191.2,68.3 178.5,0 135.8,0 106.8,69.4 77.9,0 34.9,0 8.4,142.8 51,142.8 64.6,69.6 96.7,142.8 116.9,142.8 148.8,69.6 162.4,142.8 177.3,142.8 191.7,142.8"/></svg>