<svg width="70" height="70" viewBox="0 0 40 40" fill="none" xmlns="http://www.w3.org/2000/svg">
<path d="M4.10256 37.9487C2.40323 37.9487 1.02564 36.5711 1.02564 34.8718C1.02564 33.1725 2.40323 31.7949 4.10256 31.7949C5.8019 31.7949 7.17949 33.1725 7.17949 34.8718C7.17949 36.5711 5.8019 37.9487 4.10256 37.9487Z" stroke="#2000E5" stroke-width="2" stroke-linecap="round" stroke-linejoin="round"/>
<path d="M4.10256 37.9487C2.40323 37.9487 1.02564 36.5711 1.02564 34.8718C1.02564 33.1725 2.40323 31.7949 4.10256 31.7949C5.8019 31.7949 7.17949 33.1725 7.17949 34.8718C7.17949 36.5711 5.8019 37.9487 4.10256 37.9487Z" stroke="url(#paint0_linear)" stroke-width="2" stroke-linecap="round" stroke-linejoin="round"/>
<path d="M35 29.5V14C35 13.456 34.8847 12.8847 34.5 12.5C34.1153 12.1153 33.544 12 33 12H32" stroke="#2000E5" stroke-width="2" stroke-linecap="round" stroke-linejoin="round"/>
<path d="M35 29.5V14C35 13.456 34.8847 12.8847 34.5 12.5C34.1153 12.1153 33.544 12 33 12H32" stroke="url(#paint1_linear)" stroke-width="2" stroke-linecap="round" stroke-linejoin="round"/>
<path d="M10 8H6.05128C5.50725 8 4.9855 8.21612 4.60081 8.60081C4.21612 8.9855 4 9.50725 4 10.0513L4 29" stroke="#2000E5" stroke-width="2" stroke-linecap="round" stroke-linejoin="round"/>
<path d="M10 8H6.05128C5.50725 8 4.9855 8.21612 4.60081 8.60081C4.21612 8.9855 4 9.50725 4 10.0513L4 29" stroke="url(#paint2_linear)" stroke-width="2" stroke-linecap="round" stroke-linejoin="round"/>
<path d="M10 16.5H7.5V19.5V25.5H19.4872V29" stroke="#2000E5" stroke-width="2" stroke-linecap="round" stroke-linejoin="round"/>
<path d="M10 16.5H7.5V19.5V25.5H19.4872V29" stroke="url(#paint3_linear)" stroke-width="2" stroke-linecap="round" stroke-linejoin="round"/>
<rect x="16.4103" y="31.7949" width="6.15384" height="6.15385" stroke="#2000E5" stroke-width="2"/>
<rect x="16.4103" y="31.7949" width="6.15384" height="6.15385" stroke="url(#paint4_linear)" stroke-width="2"/>
<path d="M35 33L38 38H32L35 33Z" stroke="#2000E5" stroke-width="2"/>
<path d="M35 33L38 38H32L35 33Z" stroke="url(#paint5_linear)" stroke-width="2"/>
<path d="M23 1H15C14.4696 1 13.9609 1.21071 13.5858 1.58579C13.2107 1.96086 13 2.46957 13 3V19C13 19.5304 13.2107 20.0391 13.5858 20.4142C13.9609 20.7893 14.4696 21 15 21H27C27.5304 21 28.0391 20.7893 28.4142 20.4142C28.7893 20.0391 29 19.5304 29 19V7L23 1Z" stroke="#2000E5" stroke-width="2" stroke-linecap="round" stroke-linejoin="round"/>
<path d="M23 1H15C14.4696 1 13.9609 1.21071 13.5858 1.58579C13.2107 1.96086 13 2.46957 13 3V19C13 19.5304 13.2107 20.0391 13.5858 20.4142C13.9609 20.7893 14.4696 21 15 21H27C27.5304 21 28.0391 20.7893 28.4142 20.4142C28.7893 20.0391 29 19.5304 29 19V7L23 1Z" stroke="url(#paint6_linear)" stroke-width="2" stroke-linecap="round" stroke-linejoin="round"/>
<path d="M23 1V7H29" stroke="#2000E5" stroke-width="2" stroke-linecap="round" stroke-linejoin="round"/>
<path d="M23 1V7H29" stroke="url(#paint7_linear)" stroke-width="2" stroke-linecap="round" stroke-linejoin="round"/>
<path d="M25 12H17" stroke="#2000E5" stroke-width="2" stroke-linecap="round" stroke-linejoin="round"/>
<path d="M25 12H17" stroke="url(#paint8_linear)" stroke-width="2" stroke-linecap="round" stroke-linejoin="round"/>
<path d="M25 16H17" stroke="#2000E5" stroke-width="2" stroke-linecap="round" stroke-linejoin="round"/>
<path d="M25 16H17" stroke="url(#paint9_linear)" stroke-width="2" stroke-linecap="round" stroke-linejoin="round"/>
<path d="M19 8H18H17" stroke="#2000E5" stroke-width="2" stroke-linecap="round" stroke-linejoin="round"/>
<path d="M19 8H18H17" stroke="url(#paint10_linear)" stroke-width="2" stroke-linecap="round" stroke-linejoin="round"/>
<defs>
<linearGradient id="paint0_linear" x1="0.5625" y1="31.7949" x2="7.59738" y2="31.9319" gradientUnits="userSpaceOnUse">
<stop stop-color="white" stop-opacity="0.1"/>
<stop offset="1" stop-color="#7100C9"/>
</linearGradient>
<linearGradient id="paint1_linear" x1="35.2258" y1="12" x2="31.795" y2="12.0114" gradientUnits="userSpaceOnUse">
<stop stop-color="white" stop-opacity="0.1"/>
<stop offset="1" stop-color="#7100C9"/>
</linearGradient>
<linearGradient id="paint2_linear" x1="3.54844" y1="7.99998" x2="10.4098" y2="8.03817" gradientUnits="userSpaceOnUse">
<stop stop-color="white" stop-opacity="0.1"/>
<stop offset="1" stop-color="#7100C9"/>
</linearGradient>
<linearGradient id="paint3_linear" x1="20.3893" y1="16.5" x2="6.68555" y2="16.756" gradientUnits="userSpaceOnUse">
<stop stop-color="white" stop-opacity="0.1"/>
<stop offset="1" stop-color="#7100C9"/>
</linearGradient>
<linearGradient id="paint4_linear" x1="23.0272" y1="31.7949" x2="15.9924" y2="31.9319" gradientUnits="userSpaceOnUse">
<stop stop-color="white" stop-opacity="0.1"/>
<stop offset="1" stop-color="#7100C9"/>
</linearGradient>
<linearGradient id="paint5_linear" x1="38.4516" y1="33" x2="31.5937" y2="33.1603" gradientUnits="userSpaceOnUse">
<stop stop-color="white" stop-opacity="0.1"/>
<stop offset="1" stop-color="#7100C9"/>
</linearGradient>
<linearGradient id="paint6_linear" x1="30.2042" y1="0.999977" x2="11.911" y2="1.2851" gradientUnits="userSpaceOnUse">
<stop stop-color="white" stop-opacity="0.1"/>
<stop offset="1" stop-color="#7100C9"/>
</linearGradient>
<linearGradient id="paint7_linear" x1="29.4516" y1="0.999993" x2="22.5925" y2="1.13363" gradientUnits="userSpaceOnUse">
<stop stop-color="white" stop-opacity="0.1"/>
<stop offset="1" stop-color="#7100C9"/>
</linearGradient>
<linearGradient id="paint8_linear" x1="25.6021" y1="12" x2="16.6703" y2="13.3922" gradientUnits="userSpaceOnUse">
<stop stop-color="white" stop-opacity="0.1"/>
<stop offset="1" stop-color="#7100C9"/>
</linearGradient>
<linearGradient id="paint9_linear" x1="25.6021" y1="16" x2="16.6703" y2="17.3922" gradientUnits="userSpaceOnUse">
<stop stop-color="white" stop-opacity="0.1"/>
<stop offset="1" stop-color="#7100C9"/>
</linearGradient>
<linearGradient id="paint10_linear" x1="19.1505" y1="8" x2="16.8668" y2="8.08899" gradientUnits="userSpaceOnUse">
<stop stop-color="white" stop-opacity="0.1"/>
<stop offset="1" stop-color="#7100C9"/>
</linearGradient>
</defs>
</svg>
