<svg width="60" height="60" viewBox="0 0 40 40" fill="none" xmlns="http://www.w3.org/2000/svg">
<path d="M13.3333 5H8.33333C7.44928 5 6.60143 5.35119 5.97631 5.97631C5.35119 6.60143 5 7.44928 5 8.33333V13.3333M35 13.3333V8.33333C35 7.44928 34.6488 6.60143 34.0237 5.97631C33.3986 5.35119 32.5507 5 31.6667 5H26.6667M26.6667 35H31.6667C32.5507 35 33.3986 34.6488 34.0237 34.0237C34.6488 33.3986 35 32.5507 35 31.6667V26.6667M5 26.6667V31.6667C5 32.5507 5.35119 33.3986 5.97631 34.0237C6.60143 34.6488 7.44928 35 8.33333 35H13.3333" stroke="black" stroke-width="2" stroke-linecap="round" stroke-linejoin="round"/>
<path d="M13.3333 5H8.33333C7.44928 5 6.60143 5.35119 5.97631 5.97631C5.35119 6.60143 5 7.44928 5 8.33333V13.3333M35 13.3333V8.33333C35 7.44928 34.6488 6.60143 34.0237 5.97631C33.3986 5.35119 32.5507 5 31.6667 5H26.6667M26.6667 35H31.6667C32.5507 35 33.3986 34.6488 34.0237 34.0237C34.6488 33.3986 35 32.5507 35 31.6667V26.6667M5 26.6667V31.6667C5 32.5507 5.35119 33.3986 5.97631 34.0237C6.60143 34.6488 7.44928 35 8.33333 35H13.3333" stroke="#2000E5" stroke-width="2" stroke-linecap="round" stroke-linejoin="round"/>
<path d="M13.3333 5H8.33333C7.44928 5 6.60143 5.35119 5.97631 5.97631C5.35119 6.60143 5 7.44928 5 8.33333V13.3333M35 13.3333V8.33333C35 7.44928 34.6488 6.60143 34.0237 5.97631C33.3986 5.35119 32.5507 5 31.6667 5H26.6667M26.6667 35H31.6667C32.5507 35 33.3986 34.6488 34.0237 34.0237C34.6488 33.3986 35 32.5507 35 31.6667V26.6667M5 26.6667V31.6667C5 32.5507 5.35119 33.3986 5.97631 34.0237C6.60143 34.6488 7.44928 35 8.33333 35H13.3333" stroke="url(#paint0_linear)" stroke-width="2" stroke-linecap="round" stroke-linejoin="round"/>
<path d="M29 24V16C28.9996 15.6493 28.9071 15.3048 28.7315 15.0012C28.556 14.6975 28.3037 14.4454 28 14.27L21 10.27C20.696 10.0945 20.3511 10.0021 20 10.0021C19.6489 10.0021 19.304 10.0945 19 10.27L12 14.27C11.6963 14.4454 11.444 14.6975 11.2685 15.0012C11.0929 15.3048 11.0004 15.6493 11 16V24C11.0004 24.3507 11.0929 24.6952 11.2685 24.9988C11.444 25.3025 11.6963 25.5546 12 25.73L19 29.73C19.304 29.9055 19.6489 29.998 20 29.998C20.3511 29.998 20.696 29.9055 21 29.73L28 25.73C28.3037 25.5546 28.556 25.3025 28.7315 24.9988C28.9071 24.6952 28.9996 24.3507 29 24Z" stroke="#2000E5" stroke-width="2" stroke-linecap="round" stroke-linejoin="round"/>
<path d="M29 24V16C28.9996 15.6493 28.9071 15.3048 28.7315 15.0012C28.556 14.6975 28.3037 14.4454 28 14.27L21 10.27C20.696 10.0945 20.3511 10.0021 20 10.0021C19.6489 10.0021 19.304 10.0945 19 10.27L12 14.27C11.6963 14.4454 11.444 14.6975 11.2685 15.0012C11.0929 15.3048 11.0004 15.6493 11 16V24C11.0004 24.3507 11.0929 24.6952 11.2685 24.9988C11.444 25.3025 11.6963 25.5546 12 25.73L19 29.73C19.304 29.9055 19.6489 29.998 20 29.998C20.3511 29.998 20.696 29.9055 21 29.73L28 25.73C28.3037 25.5546 28.556 25.3025 28.7315 24.9988C28.9071 24.6952 28.9996 24.3507 29 24Z" stroke="url(#paint1_linear)" stroke-width="2" stroke-linecap="round" stroke-linejoin="round"/>
<path d="M11.27 14.96L20 20.01L28.73 14.96" stroke="#2000E5" stroke-width="2" stroke-linecap="round" stroke-linejoin="round"/>
<path d="M11.27 14.96L20 20.01L28.73 14.96" stroke="url(#paint2_linear)" stroke-width="2" stroke-linecap="round" stroke-linejoin="round"/>
<path d="M20 30.08V20" stroke="#2000E5" stroke-width="2" stroke-linecap="round" stroke-linejoin="round"/>
<path d="M20 30.08V20" stroke="url(#paint3_linear)" stroke-width="2" stroke-linecap="round" stroke-linejoin="round"/>
<defs>
<linearGradient id="paint0_linear" x1="37.2578" y1="4.99997" x2="2.96275" y2="5.66814" gradientUnits="userSpaceOnUse">
<stop stop-color="white" stop-opacity="0.1"/>
<stop offset="1" stop-color="#7100C9"/>
</linearGradient>
<linearGradient id="paint1_linear" x1="30.3547" y1="10.002" x2="9.77617" y2="10.3629" gradientUnits="userSpaceOnUse">
<stop stop-color="white" stop-opacity="0.1"/>
<stop offset="1" stop-color="#7100C9"/>
</linearGradient>
<linearGradient id="paint2_linear" x1="30.044" y1="14.96" x2="10.1669" y2="16.2989" gradientUnits="userSpaceOnUse">
<stop stop-color="white" stop-opacity="0.1"/>
<stop offset="1" stop-color="#7100C9"/>
</linearGradient>
<linearGradient id="paint3_linear" x1="21.0753" y1="20" x2="19.9317" y2="20.0022" gradientUnits="userSpaceOnUse">
<stop stop-color="white" stop-opacity="0.1"/>
<stop offset="1" stop-color="#7100C9"/>
</linearGradient>
</defs>
</svg>
