<svg width="70" height="70" viewBox="0 0 40 40" fill="none" xmlns="http://www.w3.org/2000/svg">
<path d="M17.8571 1L18.5714 3.76364V5.14545V16.8909" stroke="#2000E5" stroke-width="2" stroke-linecap="round"/>
<path d="M17.8571 1L18.5714 3.76364V5.14545V16.8909" stroke="url(#paint0_linear)" stroke-width="2" stroke-linecap="round"/>
<path d="M18.5714 5.14545H13.5714L10.7143 9.98182L10 16.8909" stroke="#2000E5" stroke-width="2" stroke-linecap="round"/>
<path d="M18.5714 5.14545H13.5714L10.7143 9.98182L10 16.8909" stroke="url(#paint1_linear)" stroke-width="2" stroke-linecap="round"/>
<path d="M18.5714 5.14545L22.8571 6.52727L27.8571 12.7455L30 19.6545" stroke="#2000E5" stroke-width="2" stroke-linecap="round"/>
<path d="M18.5714 5.14545L22.8571 6.52727L27.8571 12.7455L30 19.6545" stroke="url(#paint2_linear)" stroke-width="2" stroke-linecap="round"/>
<path d="M18.5714 16.8909L22.1429 17.5818L18.5714 39" stroke="#2000E5" stroke-width="2" stroke-linecap="round"/>
<path d="M18.5714 16.8909L22.1429 17.5818L18.5714 39" stroke="url(#paint3_linear)" stroke-width="2" stroke-linecap="round"/>
<path d="M18.5714 16.8909L14.2857 15.5091L10.7143 27.2545H17.1429" stroke="#2000E5" stroke-width="2" stroke-linecap="round"/>
<path d="M18.5714 16.8909L14.2857 15.5091L10.7143 27.2545H17.1429" stroke="url(#paint4_linear)" stroke-width="2" stroke-linecap="round"/>
<defs>
<linearGradient id="paint0_linear" x1="18.6252" y1="0.999982" x2="17.8083" y2="1.0007" gradientUnits="userSpaceOnUse">
<stop stop-color="white" stop-opacity="0.1"/>
<stop offset="1" stop-color="#7100C9"/>
</linearGradient>
<linearGradient id="paint1_linear" x1="19.2165" y1="5.14544" x2="9.41619" y2="5.28478" gradientUnits="userSpaceOnUse">
<stop stop-color="white" stop-opacity="0.1"/>
<stop offset="1" stop-color="#7100C9"/>
</linearGradient>
<linearGradient id="paint2_linear" x1="30.8601" y1="5.14544" x2="17.7935" y2="5.34597" gradientUnits="userSpaceOnUse">
<stop stop-color="white" stop-opacity="0.1"/>
<stop offset="1" stop-color="#7100C9"/>
</linearGradient>
<linearGradient id="paint3_linear" x1="22.4116" y1="16.8909" x2="18.3274" y2="16.9037" gradientUnits="userSpaceOnUse">
<stop stop-color="white" stop-opacity="0.1"/>
<stop offset="1" stop-color="#7100C9"/>
</linearGradient>
<linearGradient id="paint4_linear" x1="19.1628" y1="15.5091" x2="10.1788" y2="15.6262" gradientUnits="userSpaceOnUse">
<stop stop-color="white" stop-opacity="0.1"/>
<stop offset="1" stop-color="#7100C9"/>
</linearGradient>
</defs>
</svg>
