<svg width="20" height="20" viewBox="0 0 20 20" fill="none" xmlns="http://www.w3.org/2000/svg">
<path d="M5.672 12.152C6.344 12.344 6.896 12.704 7.328 13.232C7.76 13.76 7.976 14.384 7.976 15.104C7.976 15.968 7.688 16.688 7.112 17.264C6.536 17.84 5.84 18.128 5.024 18.128C4.16 18.128 3.44 17.84 2.864 17.264C2.288 16.688 2 15.968 2 15.104C2 14.24 2.216 13.136 2.648 11.792L5.456 2H7.976L5.672 12.152ZM16.688 12.152C17.36 12.344 17.912 12.704 18.344 13.232C18.776 13.76 18.992 14.384 18.992 15.104C18.992 15.968 18.704 16.688 18.128 17.264C17.552 17.84 16.856 18.128 16.04 18.128C15.176 18.128 14.456 17.84 13.88 17.264C13.304 16.688 13.016 15.968 13.016 15.104C13.016 14.24 13.232 13.136 13.664 11.792L16.472 2H18.992L16.688 12.152Z" fill="#2000E5"/>
<path d="M5.672 12.152C6.344 12.344 6.896 12.704 7.328 13.232C7.76 13.76 7.976 14.384 7.976 15.104C7.976 15.968 7.688 16.688 7.112 17.264C6.536 17.84 5.84 18.128 5.024 18.128C4.16 18.128 3.44 17.84 2.864 17.264C2.288 16.688 2 15.968 2 15.104C2 14.24 2.216 13.136 2.648 11.792L5.456 2H7.976L5.672 12.152ZM16.688 12.152C17.36 12.344 17.912 12.704 18.344 13.232C18.776 13.76 18.992 14.384 18.992 15.104C18.992 15.968 18.704 16.688 18.128 17.264C17.552 17.84 16.856 18.128 16.04 18.128C15.176 18.128 14.456 17.84 13.88 17.264C13.304 16.688 13.016 15.968 13.016 15.104C13.016 14.24 13.232 13.136 13.664 11.792L16.472 2H18.992L16.688 12.152Z" fill="url(#paint0_linear)"/>
<defs>
<linearGradient id="paint0_linear" x1="20.2708" y1="1.99998" x2="0.846905" y2="2.39852" gradientUnits="userSpaceOnUse">
<stop stop-color="white" stop-opacity="0.1"/>
<stop offset="1" stop-color="#7100C9"/>
</linearGradient>
</defs>
</svg>
