<svg width="20" height="20" viewBox="0 0 20 20" fill="none" xmlns="http://www.w3.org/2000/svg">
<path d="M14.328 7.848C13.656 7.656 13.104 7.296 12.672 6.768C12.24 6.24 12.024 5.616 12.024 4.896C12.024 4.032 12.312 3.312 12.888 2.736C13.464 2.16 14.16 1.872 14.976 1.872C15.84 1.872 16.56 2.16 17.136 2.736C17.712 3.312 18 4.032 18 4.896C18 5.76 17.784 6.864 17.352 8.208L14.544 18H12.024L14.328 7.848ZM3.312 7.848C2.64 7.656 2.088 7.296 1.656 6.768C1.224 6.24 1.008 5.616 1.008 4.896C1.008 4.032 1.296 3.312 1.872 2.736C2.448 2.16 3.144 1.872 3.96 1.872C4.824 1.872 5.544 2.16 6.12 2.736C6.696 3.312 6.984 4.032 6.984 4.896C6.984 5.76 6.768 6.864 6.336 8.208L3.528 18H1.008L3.312 7.848Z" fill="#2000E5"/>
<path d="M14.328 7.848C13.656 7.656 13.104 7.296 12.672 6.768C12.24 6.24 12.024 5.616 12.024 4.896C12.024 4.032 12.312 3.312 12.888 2.736C13.464 2.16 14.16 1.872 14.976 1.872C15.84 1.872 16.56 2.16 17.136 2.736C17.712 3.312 18 4.032 18 4.896C18 5.76 17.784 6.864 17.352 8.208L14.544 18H12.024L14.328 7.848ZM3.312 7.848C2.64 7.656 2.088 7.296 1.656 6.768C1.224 6.24 1.008 5.616 1.008 4.896C1.008 4.032 1.296 3.312 1.872 2.736C2.448 2.16 3.144 1.872 3.96 1.872C4.824 1.872 5.544 2.16 6.12 2.736C6.696 3.312 6.984 4.032 6.984 4.896C6.984 5.76 6.768 6.864 6.336 8.208L3.528 18H1.008L3.312 7.848Z" fill="url(#paint0_linear)"/>
<defs>
<linearGradient id="paint0_linear" x1="-0.270826" y1="18" x2="19.1531" y2="17.6015" gradientUnits="userSpaceOnUse">
<stop stop-color="white" stop-opacity="0.1"/>
<stop offset="1" stop-color="#7100C9"/>
</linearGradient>
</defs>
</svg>
