<svg width="110" height="110" viewBox="0 0 110 110" fill="none" xmlns="http://www.w3.org/2000/svg">
<g clip-path="url(#clip0)">
<path d="M12.7318 74.6099H18.9229V91.1779C18.9229 93.812 19.0015 95.5128 19.1504 96.2882C19.4145 97.541 20.033 98.5511 21.0155 99.306C22.005 100.067 23.3498 100.445 25.0577 100.445C26.787 100.445 28.0971 100.089 28.9794 99.3703C29.862 98.6511 30.3886 97.7757 30.567 96.7299C30.7446 95.6831 30.8374 93.9538 30.8374 91.5339V74.6099H37.0284V90.687C37.0284 94.3598 36.865 96.9574 36.5303 98.4735C36.1958 99.9886 35.5836 101.27 34.6868 102.316C33.7973 103.362 32.6023 104.188 31.1077 104.807C29.6058 105.426 27.6554 105.74 25.2433 105.74C22.3325 105.74 20.1258 105.405 18.6241 104.729C17.1222 104.052 15.9345 103.178 15.0582 102.095C14.183 101.014 13.6136 99.8896 13.3361 98.7011C12.931 96.9503 12.7318 94.3598 12.7318 90.9361V74.6099ZM63.6813 105.185H57.8312V93.8897C57.8312 91.4981 57.7036 89.9544 57.4539 89.2565C57.1977 88.5526 56.7926 88.011 56.2232 87.62C55.6538 87.2283 54.9704 87.0365 54.1734 87.0365C53.1484 87.0365 52.2301 87.314 51.4189 87.8689C50.6007 88.4241 50.0457 89.1638 49.7467 90.075C49.4406 90.9931 49.2908 92.6868 49.2908 95.1638V105.185H43.4406V83.0218H48.8641V86.2745C50.8069 83.7912 53.2482 82.5525 56.2019 82.5525C57.4967 82.5525 58.6852 82.7872 59.7604 83.2502C60.8419 83.7197 61.6531 84.3104 62.2009 85.0296C62.7561 85.755 63.1405 86.5735 63.3539 87.4916C63.5751 88.4097 63.6813 89.7189 63.6813 91.4277V105.185ZM69.6527 74.6099H81.8796C84.3067 74.6099 86.1066 74.7098 87.2951 74.9089C88.4908 75.1157 89.5519 75.5353 90.4907 76.1688C91.4301 76.8095 92.2136 77.6563 92.8392 78.7165C93.4656 79.7773 93.7788 80.9731 93.7788 82.2893C93.7788 83.7126 93.3942 85.0296 92.6259 86.2174C91.8576 87.413 90.811 88.3027 89.4946 88.9005C91.3517 89.4494 92.7757 90.3737 93.7788 91.6837C94.7755 92.9929 95.2734 94.5303 95.2734 96.3024C95.2734 97.6971 94.9531 99.0498 94.3054 100.366C93.6574 101.683 92.7757 102.736 91.6505 103.526C90.5333 104.309 89.153 104.793 87.5084 104.978C86.4839 105.085 84.0006 105.156 80.0645 105.185H69.6527V74.6099ZM75.8438 79.6917V86.7375H79.8869C82.2856 86.7375 83.7793 86.7018 84.3637 86.6305C85.4166 86.5092 86.2493 86.1468 86.8542 85.5419C87.4593 84.9368 87.7583 84.147 87.7583 83.1647C87.7583 82.218 87.495 81.4568 86.9748 80.8659C86.4555 80.2752 85.6799 79.9192 84.6548 79.7988C84.0434 79.7274 82.2856 79.6917 79.3881 79.6917H75.8438ZM75.8438 91.8184V100.017H81.5664C83.7864 100.017 85.2035 99.9539 85.8005 99.8325C86.7186 99.662 87.4664 99.256 88.0429 98.6083C88.6193 97.9533 88.911 97.0922 88.911 96.0036C88.911 95.0782 88.6898 94.3028 88.2418 93.662C87.8011 93.0213 87.1532 92.552 86.3134 92.2601C85.4739 91.9685 83.6446 91.8184 80.8328 91.8184H75.8438" fill="#F9F9F9"/>
<path fill-rule="evenodd" clip-rule="evenodd" d="M-0.145416 59.4795H53.4103V38.058C47.4318 38.0548 41.339 37.3015 36.2931 35.2522C32.298 33.6297 26.6499 30.8419 23.1256 28.5872L17.1594 24.6399C15.2208 23.31 13.3542 21.856 11.3986 20.4854C9.45763 19.1251 7.54229 17.7251 5.64171 16.3269C4.68894 15.626 3.74126 14.9446 2.75839 14.251C1.80451 13.5777 0.832183 12.7679 -0.145416 12.1846V59.4795Z" fill="#F9F9F9"/>
<path fill-rule="evenodd" clip-rule="evenodd" d="M56.4711 59.4795H110.025V12.1842C109.495 12.5012 109.008 12.8739 108.506 13.2491L104.185 16.3656C103.251 17.0725 102.262 17.7461 101.31 18.4478L92.6645 24.6763C88.274 27.7498 85.2077 29.6439 80.3264 32.1652C72.197 36.3644 66.3135 38.0527 56.4711 38.058V59.4795Z" fill="#F9F9F9"/>
<path fill-rule="evenodd" clip-rule="evenodd" d="M110.025 4.39429H56.4711V34.9906C63.0663 34.9906 67.9871 34.1978 73.5179 31.969C75.7667 31.0628 78.2422 29.8191 80.2929 28.7346C83.0632 27.2696 87.0839 24.901 89.6044 23.0843C90.5914 22.373 91.558 21.6872 92.5578 20.9876C97.3101 17.6625 102.263 13.897 107.051 10.5102L110.025 8.40779V4.39429Z" fill="#F9F9F9"/>
<path fill-rule="evenodd" clip-rule="evenodd" d="M-0.145447 8.40815C0.694913 8.86592 12.7777 17.7246 14.3968 18.865L20.2197 23.048C24.4116 26.0376 31.5863 30.0607 36.3615 31.9693C41.935 34.197 46.7732 34.9906 53.4101 34.9906V4.39429H-0.145447V8.40815Z" fill="#F9F9F9"/>
</g>
<defs>
<clipPath id="clip0">
<rect width="110" height="110" fill="white"/>
</clipPath>
</defs>
</svg>
