<svg width="110" height="110" viewBox="0 0 110 110" fill="none" xmlns="http://www.w3.org/2000/svg">
<g clip-path="url(#clip0)">
<path d="M50.6749 0.100928C41.9528 0.8506 33.9803 3.41679 26.5268 7.9004C13.148 15.9161 3.63297 29.6409 0.792866 45.038C0.158528 48.5413 -0.057724 50.9633 -0.057724 55.0721C-0.057724 59.0079 0.115277 61.1704 0.720782 64.6592C2.30663 73.713 6.24241 82.3486 12.1677 89.7444C13.8256 91.7916 17.6172 95.6265 19.7942 97.4286C28.1703 104.392 37.8007 108.486 49.017 109.885C51.0497 110.13 58.9501 110.13 60.9829 109.885C70.3682 108.717 78.3407 105.776 85.8518 100.716C90.9265 97.2988 95.958 92.4115 99.6631 87.3224C105.329 79.5518 108.847 70.2962 109.885 60.4063C110.159 57.768 110.115 51.6121 109.798 49.017C108.688 39.7471 105.66 31.5727 100.615 24.1481C91.2437 10.3801 76.4233 1.67236 59.8296 0.158595C58.3158 0.0144273 52.0733 -0.028823 50.6749 0.100928ZM56.802 6.44431L59.325 9.41416L59.4115 8.77983C59.4691 8.43382 59.5556 7.32373 59.6133 6.32897L59.7142 4.51246L59.1952 4.19529C58.9069 4.00787 58.6762 3.83487 58.6762 3.79162C58.6762 3.64745 61.1127 3.86371 61.3866 4.02229C61.6028 4.15204 61.6028 4.16646 61.401 4.18088C61.2712 4.18088 61.0262 4.29621 60.8532 4.42596C60.5648 4.67105 60.536 4.94496 60.3197 8.21757C60.2044 10.1494 60.0746 11.7641 60.0458 11.7929C59.8296 12.0092 59.0943 11.3028 56.9895 8.85191C55.6631 7.30932 54.5386 6.05506 54.4809 6.05506C54.3944 6.05506 54.207 8.59241 54.207 9.94759C54.207 10.8414 54.3079 11 54.9855 11.1586C55.2739 11.2307 55.3604 11.3028 55.245 11.4181C55.0288 11.6343 52.304 11.4181 52.3761 11.2018C52.4049 11.1009 52.5779 11.0144 52.7509 10.9856C52.9239 10.9568 53.1258 10.7982 53.1834 10.6108C53.2555 10.4378 53.3853 8.96724 53.4718 7.35257C53.6736 3.70512 53.7168 3.46004 54.034 3.47445C54.1638 3.47445 55.4036 4.8008 56.802 6.44431ZM49.017 3.96462C49.017 4.07996 48.9305 4.18088 48.844 4.18088C48.2817 4.19529 48.2817 4.36829 48.7286 6.60289C49.2188 9.06816 49.2621 10.0485 48.9305 10.7549C48.6421 11.346 47.8492 12.0669 47.1716 12.3552C46.422 12.6724 44.9803 12.6147 44.2739 12.2543C43.207 11.7208 42.9043 10.9712 42.1402 7.13631C41.8951 5.88205 41.8663 5.8388 41.4193 5.70905C41.1598 5.63697 40.9436 5.52164 40.9436 5.46397C40.9436 5.39188 40.9724 5.33422 41.0013 5.33422C41.0301 5.33422 41.6788 5.20447 42.4573 5.04588C43.2791 4.87288 43.9423 4.8008 44.072 4.87288C44.245 4.9738 44.1874 5.04588 43.8414 5.19005C43.5963 5.29097 43.3944 5.44955 43.3944 5.55047C43.3944 6.15597 44.3171 10.135 44.591 10.6684C45.1821 11.865 46.6094 12.1534 47.6186 11.2595C48.2529 10.6828 48.2817 9.83225 47.7339 7.15073C47.4888 5.96856 47.2149 4.91613 47.1284 4.81521C47.0419 4.69988 46.8112 4.61338 46.6238 4.61338C46.4364 4.61338 46.2778 4.55571 46.2778 4.46921C46.2778 4.32504 46.9698 4.09437 48.0078 3.90696C48.9593 3.71954 49.017 3.73396 49.017 3.96462ZM66.8649 4.91613C68.4075 5.24772 69.0995 5.62255 68.148 5.62255C67.8597 5.62255 67.6146 5.63697 67.6146 5.6658C67.6146 5.69464 67.2975 7.09306 66.8938 8.79424C66.5045 10.4954 66.1729 12.0236 66.1729 12.1966C66.1729 12.4273 66.3027 12.557 66.6054 12.6724C67.0379 12.8165 67.211 13.1193 66.8649 13.1193C66.764 13.1193 66.0432 12.9607 65.2647 12.7733C63.7077 12.3984 63.1743 12.1101 64.0393 12.1101H64.5583L65.0629 9.97642C65.3512 8.80866 65.6828 7.32373 65.8269 6.66056L66.072 5.47838L65.6684 5.04588C65.4377 4.8008 65.2935 4.61338 65.3512 4.61338C65.4089 4.61338 66.0864 4.74313 66.8649 4.91613ZM73.4822 6.96331C74.2175 7.2949 74.3328 7.49673 73.7994 7.49673C73.4822 7.49673 73.4246 7.9004 73.3092 10.8126L73.2083 13.1914L75.1834 11.2163L77.1585 9.25558L76.899 8.85191L76.6395 8.46266L77.0576 8.56357C77.3027 8.62124 77.9082 8.86633 78.4272 9.11141L79.3643 9.57275L78.7444 9.68808C78.0235 9.80342 77.9803 9.84667 74.8518 12.73C73.5543 13.9266 72.3866 14.9935 72.2424 15.0944C71.9973 15.253 71.9685 15.1953 71.8964 14.3303C71.8387 13.8257 71.8532 12.0092 71.8964 10.3224C71.9829 7.33815 71.9685 7.22281 71.6802 6.70381C71.5072 6.41548 71.363 6.15597 71.363 6.12714C71.363 6.04064 72.4587 6.47314 73.4822 6.96331ZM32.3224 9.27L32.0196 9.55833L33.4469 12.384C34.2254 13.941 34.9606 15.325 35.0615 15.4692C35.2345 15.6999 35.3499 15.7143 35.8977 15.5845L36.5465 15.4404L36.1861 15.7431C35.8545 16.0026 33.418 17.3001 33.2306 17.3001C33.0432 17.3001 33.1874 16.9541 33.4901 16.7091L33.8073 16.4496L32.2791 13.4509L30.7509 10.4522L30.1166 10.3801L29.4822 10.308L30.7798 9.60158C31.5006 9.21233 32.1782 8.83749 32.2935 8.77983C32.6395 8.60683 32.6539 8.93841 32.3224 9.27ZM83.4298 12.2687C84.5255 12.9895 85.4626 13.6239 85.5347 13.6815C85.6788 13.8257 84.7994 15.1809 84.6408 15.0655C84.5543 15.0223 84.5399 14.7628 84.5832 14.5033C84.6552 14.0419 84.612 13.9699 83.9632 13.4941C83.574 13.2202 83.2136 12.9751 83.1559 12.9751C83.0982 12.9751 82.7234 13.4509 82.3341 14.0419L81.6133 15.1088L82.4062 15.6422C83.1703 16.1324 83.228 16.1468 83.5452 15.945C83.747 15.8152 83.9344 15.7143 83.9777 15.7143C84.093 15.7143 83.6317 16.5793 83.228 17.1127C82.7955 17.7038 82.5504 17.7326 82.6802 17.1704C82.7667 16.7956 82.709 16.7091 82.1323 16.3054C81.7863 16.0747 81.4259 15.8585 81.3394 15.8296C81.2529 15.8008 80.7916 16.363 80.3158 17.0839L79.4508 18.367L80.3158 18.9437L81.1808 19.5059L81.6998 19.2608C81.9737 19.1311 82.2476 19.0446 82.2765 19.0878C82.3774 19.1743 81.5701 20.4718 81.4115 20.4718C81.152 20.4718 77.1297 17.6606 77.1297 17.4731C77.1297 17.329 77.2162 17.3001 77.3892 17.3722C78.0379 17.6461 78.0812 17.6029 79.0183 16.2621C80.5321 14.0852 81.7431 12.1822 81.7431 11.9804C81.7431 11.8794 81.6133 11.6055 81.4403 11.3748C81.2817 11.1442 81.2096 10.9568 81.2961 10.9568C81.3682 10.9568 82.3341 11.5478 83.4298 12.2687ZM26.6566 12.903C27.0602 13.4653 27.0891 13.5518 26.8584 13.5518C26.6998 13.5518 26.5124 13.4797 26.4259 13.3932C26.2096 13.1769 25.6474 13.4076 24.9698 13.9554L24.494 14.3447L25.2437 15.3539C25.6618 15.9161 26.0222 16.3919 26.0366 16.4207C26.0655 16.4496 26.4115 16.2189 26.8151 15.9161C27.4639 15.426 27.5504 15.2962 27.4783 14.9502C27.4351 14.734 27.4495 14.561 27.5072 14.561C27.6946 14.561 28.3433 15.325 28.6172 15.844C28.8479 16.3198 28.8479 16.3342 28.6028 16.2189C28.0262 15.9882 27.8676 16.017 27.2044 16.5072L26.5124 17.0262L27.0458 17.7759C27.3486 18.194 27.7811 18.7707 28.0117 19.059L28.4154 19.6068L29.1939 19.0157C29.9292 18.4535 29.9724 18.3958 30.0157 17.7182L30.0589 16.9974L30.5923 17.7182L31.1402 18.4391L29.1218 19.9672C27.1179 21.481 26.325 21.8847 26.9449 21.0918C27.3197 20.6304 27.4495 20.8611 25.0275 17.6173C23.9606 16.19 23.1965 15.2818 23.038 15.2818C22.9082 15.2818 22.6199 15.3539 22.418 15.426C21.6395 15.7143 22.1441 15.2097 24.0904 13.7392C25.1572 12.9174 26.0655 12.2543 26.1087 12.2543C26.152 12.2543 26.3971 12.5426 26.6566 12.903ZM57.5229 14.9935C67.557 15.6999 76.3656 19.6789 83.3433 26.6566C89.6579 32.9712 93.4927 40.6697 94.8191 49.6658C95.0065 50.9633 95.0642 52.3041 95.0642 55.0721C95.0642 59.0223 94.9056 60.6514 94.1992 63.8375C90.7968 79.1049 78.6579 91.114 63.3328 94.3434C58.1284 95.4391 52.0445 95.4679 46.9265 94.4155C31.2123 91.1717 18.8283 78.7733 15.6566 63.1167C11.591 42.9908 23.2254 23.1101 42.7745 16.8244C46.5085 15.6134 50.1127 15.0223 54.6395 14.8781C55.072 14.8637 56.3695 14.9214 57.5229 14.9935ZM92.0655 19.4915C92.1808 19.7077 92.2673 20.1691 92.2673 20.5295C92.2673 21.0629 92.1808 21.2648 91.7916 21.6684C91.3158 22.1874 90.5373 22.4902 89.7155 22.4902C89.3263 22.4902 89.2254 22.5623 89.1389 22.8794C88.9947 23.4705 89.0091 26.6566 89.1533 27.2477L89.283 27.7523L88.6631 27.1756C88.3315 26.8585 87.9711 26.426 87.8558 26.2097C87.6107 25.734 87.6107 24.6527 87.8558 23.1389C88.0432 22.0288 88.0432 21.9712 87.7549 21.654L87.4521 21.3224L86.4718 22.3028L85.5058 23.2687L85.7942 23.7444C85.9672 24.0184 86.0681 24.2779 86.0248 24.3211C85.9095 24.422 84.3669 23.038 83.8767 22.3893C83.401 21.7693 83.4442 21.654 83.9777 22L84.3525 22.2451L86.7313 19.8807L89.11 17.5164L89.0235 16.8676L88.937 16.2189L90.3931 17.6606C91.2005 18.4535 91.9501 19.2752 92.0655 19.4915ZM19.8807 18.7995C20.2267 19.1455 20.4429 19.4627 20.3708 19.5059C20.2988 19.5492 19.9672 19.5059 19.6356 19.4194C19.131 19.2897 18.9436 19.2897 18.6264 19.4771C17.7614 19.9528 17.6461 21.0485 18.4246 21.3657C18.6985 21.4666 19.2175 21.4666 20.2555 21.3368C21.0629 21.2503 21.899 21.2215 22.1297 21.2792C23.8885 21.6828 24.6238 23.4561 23.6579 24.9699C23.283 25.561 22.1297 26.5269 21.7981 26.5269C21.6251 26.5269 20.3276 25.2582 20.3276 25.0852C20.3276 24.8978 20.3853 24.8978 21.0052 25.1573C21.7981 25.4889 22.3027 25.4312 22.7929 24.9554C23.0956 24.6527 23.211 24.3932 23.211 24.0328C23.211 23.0813 22.3748 22.7208 20.7168 22.9515C19.1598 23.1678 18.4102 23.0236 17.6749 22.346C17.1271 21.827 17.0838 21.7405 17.0838 21.0053C17.0838 20.3997 17.1703 20.097 17.4875 19.6357C17.8335 19.1022 18.9148 18.1651 19.1598 18.1651C19.2175 18.1651 19.5347 18.4535 19.8807 18.7995ZM13.4796 24.9266C13.3643 25.4745 13.5661 25.633 16.9252 27.6946C18.3957 28.6029 19.6068 29.4102 19.6068 29.4967C19.6068 29.7562 19.0157 29.9437 15.5701 30.7077C13.7824 31.1114 12.211 31.4718 12.0524 31.5151C11.8361 31.5872 11.9659 31.7169 12.629 32.135C14.6762 33.4325 15.7286 34.0236 15.9593 34.0236C16.0891 34.0236 16.3486 33.8794 16.536 33.7064C16.7234 33.5334 16.9108 33.4325 16.9541 33.4902C17.0406 33.5767 16.1467 35.1914 15.6566 35.8257C15.4403 36.0996 15.4403 36.0852 15.4259 35.5085C15.4259 34.8021 15.5412 34.8886 11.7929 32.5963C10.4665 31.789 9.34201 31.0682 9.29876 30.9961C9.14018 30.7366 10.1061 30.4338 13.595 29.6841C16.4062 29.0786 17.1271 28.8768 16.9829 28.7471C16.6081 28.3866 13.2057 26.3827 12.9606 26.3827C12.8309 26.3827 12.557 26.5125 12.3407 26.6855C11.764 27.1324 11.8649 26.7431 12.629 25.5465C13.321 24.4509 13.6382 24.2202 13.4796 24.9266ZM96.6933 25.1861C97.2267 25.4312 97.9331 26.2818 98.2647 27.0747C98.4665 27.5216 98.4521 27.5649 98.0773 27.8965C97.6303 28.2857 96.9095 28.6317 96.7942 28.502C96.7509 28.4587 96.8518 28.2281 97.0248 27.9974C97.2123 27.7523 97.3564 27.3919 97.3564 27.19C97.3564 26.3827 96.4626 25.633 95.8571 25.9502C95.4102 26.1953 95.1939 26.8008 95.1074 28.0839C94.9921 29.5256 94.6461 30.3906 93.9541 30.9096C92.4403 32.0629 90.4508 31.0682 89.802 28.8047C89.7011 28.4299 89.7444 28.3578 90.5373 27.8244C90.9986 27.5072 91.4167 27.2477 91.46 27.2477C91.6474 27.2477 91.5176 27.6081 91.186 28.0551C90.6815 28.7182 90.6959 29.4535 91.2437 30.0013C91.8204 30.5636 92.4115 30.5636 92.9016 29.9869C93.2765 29.5256 93.3486 29.2516 93.4927 27.6802C93.6946 25.561 95.1218 24.4364 96.6933 25.1861ZM101.379 32.6396C102.027 33.9948 102.085 34.3696 101.595 33.9083C101.408 33.7353 101.191 33.5911 101.105 33.5911C101.018 33.5911 99.6054 34.2399 97.9764 35.0328L94.9921 36.4889L95.093 37.152C95.1651 37.6566 95.1507 37.7864 95.0065 37.6999C94.7758 37.5557 93.5648 35.0472 93.5648 34.6868C93.5648 34.4129 93.5792 34.4129 93.8964 34.7156C94.0838 34.8886 94.3145 35.0328 94.401 35.0328C94.7326 35.0328 100.341 32.1494 100.355 31.962C100.37 31.8755 100.355 31.6304 100.341 31.4286C100.312 31.1114 100.341 31.097 100.571 31.2844C100.701 31.3997 101.062 32.0197 101.379 32.6396ZM11.2739 36.7916C12.3119 37.2818 12.8309 37.7431 13.3355 38.6658C13.7103 39.329 13.768 39.5741 13.7535 40.5832C13.7535 42.4574 12.9174 43.9135 11.4324 44.6488C9.90427 45.384 8.131 45.0957 6.79024 43.8847C5.82432 43.0197 5.5504 42.3853 5.5504 40.9437C5.5504 39.9056 5.60807 39.5885 5.95407 38.8532C7.02091 36.5754 9.06809 35.7824 11.2739 36.7916ZM103.57 37.5845C103.613 37.7287 104.031 39.1992 104.522 40.8572C105.012 42.5007 105.387 43.8703 105.358 43.8991C105.199 44.0288 103.887 44.5334 103.83 44.4902C103.801 44.4469 103.902 44.2307 104.075 44C104.435 43.481 104.449 43.0918 104.161 42.2123L103.93 41.5636L101.062 42.4142C97.0969 43.5675 97.4141 43.4233 97.5294 44.1298C97.6015 44.5767 97.5871 44.7064 97.4429 44.6632C97.2411 44.5911 96.2463 41.3762 96.3905 41.2464C96.4338 41.2032 96.6212 41.3473 96.8086 41.578L97.1402 41.9961L100.283 41.059L103.44 40.1363L103.397 39.7038C103.311 38.983 102.835 38.0603 102.532 38.0603C102.388 38.0603 102.143 37.9738 101.999 37.8585C101.71 37.6566 101.739 37.6422 103.397 37.3539C103.455 37.3539 103.527 37.4548 103.57 37.5845ZM4.82956 47.287C5.30532 47.8205 7.38133 49.3198 8.03009 49.6225C8.46259 49.81 9.02484 49.9109 9.90427 49.9253L11.1729 49.9541L11.3748 49.4784C11.4901 49.2333 11.6199 49.017 11.6631 49.017C11.8073 49.017 11.591 51.9581 11.4324 52.2464C11.3027 52.4915 11.2739 52.4771 11.1297 52.0734C10.9999 51.6697 10.899 51.6265 10.1349 51.5256C8.46259 51.2949 8.03009 51.3814 6.17032 52.2897C4.82956 52.9384 4.29614 53.27 3.86364 53.7746L3.30138 54.4233L3.38789 53.1258C3.51764 51.3958 3.56089 51.2372 3.86364 51.5111C4.07989 51.713 4.26731 51.6553 5.68015 51.021C6.54516 50.6317 7.28041 50.3001 7.30925 50.2569C7.33808 50.2281 6.70374 49.7811 5.8964 49.2477C4.49798 48.3395 4.41148 48.3106 4.15197 48.5269C3.90689 48.7575 3.89247 48.7431 3.89247 47.8349C3.89247 47.3159 3.96456 46.6815 4.06547 46.4076L4.23848 45.9174L4.39706 46.4364C4.46914 46.7392 4.67098 47.114 4.82956 47.287ZM106.05 48.0655C106.151 49.1756 106.151 49.19 105.848 49.0026C105.531 48.8008 105.3 48.9161 103.469 50.2569L102.619 50.8624L103.325 51.1796C103.7 51.3526 104.406 51.6409 104.896 51.8283L105.776 52.1743L106.079 51.8716L106.367 51.5688L106.453 52.4194C106.511 52.8952 106.583 53.5295 106.612 53.8467L106.684 54.4233L106.151 53.8178C105.761 53.3853 105.156 52.9817 104.147 52.4915C102.186 51.5256 101.681 51.4102 100.254 51.5976C99.0432 51.7706 98.7549 51.9581 98.7549 52.6068C98.7549 52.8663 98.7116 52.924 98.5963 52.8087C98.4089 52.6212 98.1061 49.8388 98.2503 49.4928C98.3224 49.2765 98.38 49.3198 98.553 49.7235L98.7549 50.2136L99.9803 50.1271C101.408 50.0262 102.013 49.7667 103.368 48.7143C104.738 47.6619 105.242 47.1284 105.502 46.5662L105.718 46.0616L105.833 46.4941C105.906 46.7248 106.006 47.4312 106.05 48.0655ZM11.1874 67.0957C11.5622 67.4705 11.6775 67.7012 11.6775 68.1193C11.6775 68.5374 11.5622 68.768 11.1874 69.1429C10.3512 69.979 9.1546 69.7484 8.70768 68.6815C8.27517 67.6579 8.99601 66.6055 10.1205 66.6055C10.5819 66.6055 10.7981 66.7064 11.1874 67.0957ZM101.292 67.0236C101.927 67.4128 102.157 68.0472 101.941 68.7824C101.725 69.4889 101.206 69.8493 100.37 69.8493C99.8361 69.8493 99.6775 69.7772 99.3171 69.3735C98.6972 68.6959 98.726 67.903 99.3892 67.2398C99.9659 66.6632 100.586 66.5911 101.292 67.0236ZM93.4927 82.6225C94.6893 83.6029 95.7706 84.4967 95.9148 84.6121C96.131 84.7851 96.2031 84.7706 96.4914 84.5111L96.8086 84.2084L97.2123 84.5688L97.6159 84.9148L94.9921 88.0865C93.5504 89.8309 92.3106 91.2582 92.2241 91.2582C92.1376 91.2582 91.9213 91.114 91.7339 90.941L91.4023 90.6383L91.9069 90.0184L92.4115 89.3984L91.4311 88.6055C90.8833 88.1586 90.2922 87.7982 90.1192 87.7982C89.9606 87.7982 89.8165 87.7549 89.8165 87.7117C89.8165 87.5963 90.7103 86.5007 90.8256 86.5007C90.8689 86.5007 91.4167 86.9187 92.0366 87.4377C93.1323 88.346 93.1756 88.3748 93.4495 88.1298C93.7234 87.8847 93.7234 87.8847 93.4495 87.654C93.2909 87.5387 92.7431 87.0917 92.2241 86.6592L91.2725 85.8807L91.6618 85.405C91.8781 85.1311 92.1087 84.9148 92.1808 84.9148C92.2385 84.9148 92.8151 85.3473 93.4351 85.8663L94.574 86.8034L94.92 86.3997C95.1939 86.097 95.2372 85.9528 95.1074 85.8375C94.7758 85.5203 90.6815 82.1756 90.6382 82.1756C90.6094 82.1756 89.8309 83.1127 88.8794 84.2661C87.9423 85.4194 87.0917 86.3565 87.0052 86.3565C86.9187 86.3565 86.7024 86.2123 86.5294 86.0249L86.2267 85.7077L88.4757 82.9974L90.7103 80.287L91.0275 80.5609C91.186 80.7051 92.3106 81.6422 93.4927 82.6225ZM19.2463 80.7484C20.1546 81.0079 20.9764 81.9305 21.1782 82.9253C21.3079 83.502 21.5242 83.9633 21.9279 84.4679C22.2594 84.8716 22.5622 85.2031 22.6343 85.2031C22.6919 85.2031 22.8217 85.0013 22.9226 84.7706C23.1389 84.2372 23.2686 84.2661 23.8885 85.0013L24.3643 85.5924L21.9423 87.6973L19.5347 89.7877L19.0301 89.2831L18.5255 88.7785L19.3617 88.0433C19.8086 87.6252 20.1834 87.2215 20.1834 87.135C20.1834 86.789 19.0445 85.8952 18.439 85.7654C17.6461 85.578 17.0117 85.1599 16.5648 84.5111C16.2909 84.0931 16.2188 83.8191 16.2188 83.055C16.2188 81.9017 16.5937 81.2818 17.5019 80.8637C18.1939 80.5465 18.4678 80.5321 19.2463 80.7484ZM15.9161 84.9725L16.363 85.5203L15.7575 86.0682C15.4115 86.3709 15.1376 86.6448 15.1376 86.6881C15.1376 86.7313 15.9161 87.6684 16.8676 88.7641L18.612 90.7536L18.2227 91.0852C18.0209 91.2726 17.7902 91.4024 17.7326 91.3735C17.6605 91.3447 16.6225 90.2058 15.4403 88.8362L13.2634 86.3421L14.2437 85.3617C14.7771 84.8283 15.2673 84.3958 15.3394 84.4102C15.4259 84.4246 15.6854 84.6697 15.9161 84.9725ZM77.6775 93.5505L78.211 94.6894L78.7155 94.4155C79.3931 94.0695 79.5085 94.0695 79.6959 94.502C79.9265 95.0066 79.941 94.9633 79.2922 95.2949C78.975 95.4535 78.7155 95.6265 78.7155 95.6697C78.7155 95.6986 78.8453 95.9869 79.0039 96.3041C79.1625 96.6212 79.2922 96.924 79.2922 96.9961C79.2922 97.1258 78.384 97.6016 78.1389 97.6016C78.0524 97.6016 77.5766 96.7366 77.072 95.6841C76.5819 94.6461 76.0196 93.6514 75.8466 93.4928L75.5294 93.2189L76.2935 92.8152C76.7116 92.599 77.072 92.426 77.1009 92.4115C77.1297 92.4115 77.3892 92.9305 77.6775 93.5505ZM33.7496 93.2189C34.2254 93.4351 34.6002 93.6514 34.6002 93.6946C34.6002 93.9109 33.6919 95.2084 33.0864 95.8571L32.4377 96.5492L32.9423 97.7313C33.2162 98.3801 33.4469 98.9856 33.4469 99.0577C33.4469 99.1298 33.1874 99.3172 32.8702 99.4758L32.3079 99.7641L32.1494 99.1586C31.8754 98.1206 31.5583 97.1691 31.4573 97.1691C31.4141 97.1691 30.9816 97.3277 30.5058 97.5151C29.0209 98.0917 29.0209 98.0917 28.8623 97.616C28.7037 97.1835 28.7182 97.1691 29.6697 96.7077C31.4141 95.8427 32.9999 94.055 32.7837 93.2045C32.6684 92.7575 32.7116 92.7575 33.7496 93.2189ZM75.1978 94.3146C75.4141 94.7471 75.4141 94.7759 75.169 94.9633C75.0248 95.0642 74.8518 95.1507 74.7798 95.1507C74.7077 95.1507 74.9383 95.4246 75.2988 95.7706C76.0052 96.4771 76.1638 96.9672 75.9475 97.8467C75.6736 98.9568 74.5635 99.7641 73.2948 99.7641C71.9397 99.7641 71.0746 98.8991 71.0746 97.5439C71.0746 96.924 71.0458 96.8807 70.8007 97.0249C70.6421 97.097 70.4836 97.1691 70.4403 97.1691C70.3394 97.1691 69.8781 96.2896 69.9501 96.232C69.979 96.2176 70.4115 95.9869 70.9161 95.7274C71.8387 95.2661 71.8532 95.2661 71.536 95.021C71.2044 94.7903 71.2188 94.7759 72.0117 94.3866L72.8047 93.9974L72.9777 94.3434L73.1362 94.7038L73.9436 94.2857C74.3905 94.055 74.7942 93.8676 74.8518 93.8532C74.9095 93.8532 75.0681 94.055 75.1978 94.3146ZM36.9069 94.4299C37.2241 94.5885 37.4836 94.7759 37.4836 94.8336C37.4836 95.0066 34.0235 102.547 33.8649 102.705C33.7496 102.835 32.9279 102.561 32.7837 102.345C32.7549 102.273 33.1153 101.364 33.6054 100.312C34.0956 99.2595 34.5714 98.1782 34.6867 97.9332L34.8885 97.4574L34.283 97.1547C33.937 96.9817 33.6487 96.8231 33.6199 96.8087C33.591 96.7798 33.6775 96.5636 33.8073 96.3041C34.0524 95.8283 34.2254 95.8139 35.0183 96.232C35.3643 96.405 35.3931 96.3761 35.6959 95.7274C35.8689 95.3526 36.0563 94.848 36.114 94.5885C36.1572 94.3434 36.2437 94.1415 36.2726 94.1415C36.3158 94.1415 36.6041 94.2713 36.9069 94.4299ZM38.7811 95.2949C39.0982 95.4535 39.3577 95.6121 39.3577 95.6553C39.3577 95.7418 35.7535 103.556 35.6815 103.642C35.5661 103.743 34.456 103.195 34.456 103.037C34.456 102.95 35.1192 101.451 35.9265 99.7064C36.7195 97.9476 37.5412 96.1743 37.7142 95.7562C37.9016 95.3526 38.0891 95.0066 38.1323 95.0066C38.1756 95.0066 38.4783 95.1363 38.7811 95.2949ZM80.3591 99.1442L81.0222 100.485L80.4456 100.773C80.1428 100.932 79.8256 101.062 79.7535 101.062C79.6815 101.062 79.4796 100.73 79.2922 100.326C79.1048 99.9227 78.903 99.5767 78.8309 99.5334C78.7732 99.4902 77.5766 100.024 76.1782 100.701C74.7798 101.379 73.5832 101.927 73.5255 101.927C73.4822 101.927 73.3237 101.71 73.2083 101.436L72.9777 100.961L76.3079 99.3604C78.1389 98.481 79.6526 97.7746 79.667 97.789C79.6815 97.8034 79.9842 98.4233 80.3591 99.1442ZM56.9462 99.5478C56.9462 100.672 56.975 100.773 57.2345 100.773C57.5805 100.773 57.7391 100.052 57.6238 99.0288L57.5373 98.3224H58.3158H59.1087V102.345C59.1087 104.55 59.0655 106.569 59.0222 106.814C58.9357 107.232 58.8925 107.261 58.3014 107.261H57.667V104.911C57.667 102.287 57.6094 101.927 57.2201 101.927C56.9606 101.927 56.9462 102.071 56.9462 104.594V107.261H56.2975H55.6487V106.396V105.531H53.1978H50.747V102.446C50.747 100.744 50.6893 99.1874 50.6028 98.9856L50.4587 98.6107H52.477H54.4954V99.1153V99.6199H53.342H52.1887V101.999V104.377H53.9331H55.6631L55.6199 101.595C55.591 100.081 55.5189 98.7117 55.4469 98.5675C55.3459 98.3512 55.418 98.3224 56.1389 98.3224H56.9462V99.5478Z" fill="white"/>
<path d="M54.726 21.6107C54.5674 21.8414 51.8427 23.6002 50.2424 24.4797C46.1336 26.7575 40.8715 28.5164 35.3211 29.4823C32.8125 29.9148 29.1507 30.2752 27.2909 30.2752H25.9357L25.9934 42.5583C26.0366 53.2411 26.0799 55.1153 26.2961 56.8021C26.4403 57.8689 26.5701 58.7628 26.5845 58.7772C26.6133 58.806 28.0117 58.6042 29.7129 58.3158C38.3774 56.9174 45.8453 56.3263 54.9999 56.3263C64.1546 56.3263 71.6225 56.9174 80.287 58.3158C81.9882 58.6042 83.401 58.806 83.4154 58.7772C83.4442 58.7483 83.574 57.9266 83.7038 56.9318C83.9056 55.4181 83.9633 53.2411 84.0065 42.7025L84.0642 30.2752H82.709C80.8781 30.2752 77.346 29.9292 74.7653 29.4823C67.7876 28.3001 61.8768 26.0655 56.8165 22.6776C55.8217 22.0288 54.9711 21.481 54.9134 21.481C54.8558 21.481 54.7693 21.5386 54.726 21.6107ZM58.0707 30.5635C61.3722 31.5006 64.0825 33.8073 65.5242 36.9502C66.2595 38.536 66.5045 39.7326 66.5045 41.6645C66.519 43.7405 66.245 44.8506 65.2647 46.8545C64.6304 48.1664 64.3564 48.5413 63.2175 49.6802C61.7038 51.2084 60.5072 51.9725 58.5321 52.65C57.2201 53.097 57.0615 53.1258 54.9999 53.1258C52.9384 53.1258 52.7798 53.097 51.4678 52.65C49.709 52.0445 48.3826 51.2516 47.114 50.055C44.7352 47.806 43.4809 44.9226 43.4809 41.6645C43.4809 35.9987 47.4744 31.3132 53.169 30.2752C54.2647 30.0734 56.8885 30.2175 58.0707 30.5635ZM75.5439 36.4167C75.4574 36.6186 75.3997 37.0511 75.3997 37.3827C75.3997 37.9593 75.4718 38.0458 76.7693 39.2857C77.7496 40.2084 78.1389 40.6841 78.1389 40.9148C78.1389 41.4194 77.7496 42.1402 77.1153 42.8755C76.8125 43.2215 76.553 43.5386 76.553 43.5819C76.553 43.6251 76.7981 43.6828 77.1153 43.7116L77.6631 43.7549L77.4613 44.4325L77.2595 45.1245H74.9528H72.6605L72.5163 44.7641C72.1127 43.6972 72.1127 43.6828 73.0065 43.6828C74.1743 43.6828 74.0733 43.2503 72.5596 41.8807C71.7955 41.1887 71.6513 40.9869 71.6513 40.5976C71.6513 40.1363 72.1847 39.228 72.7038 38.7955C72.92 38.6225 72.9488 38.6513 72.9488 38.9974C72.9488 39.5884 73.3093 40.093 74.2031 40.7274C74.6356 41.0445 75.0825 41.4338 75.1979 41.578C75.4141 41.8951 75.3276 42.4285 74.9672 42.962C74.5058 43.6396 74.5058 43.6828 74.823 43.6828C75.2411 43.6828 75.7745 43.1061 75.9619 42.4574C76.1494 41.7365 75.9187 41.2752 75.0104 40.612C73.5255 39.5164 73.2083 38.9541 73.6408 38.1035C73.8859 37.6278 75.3997 36.0419 75.6015 36.0419C75.6448 36.0419 75.6159 36.2149 75.5439 36.4167ZM34.11 40.5688C34.3551 40.7562 34.384 41.0013 34.4272 43.0485C34.456 44.3027 34.4416 45.5426 34.384 45.8021L34.2975 46.2778H32.8702H31.4285V43.3224V40.3669H32.6251C33.4325 40.3669 33.9226 40.439 34.11 40.5688ZM38.2044 43.3224V46.2778H36.6906H35.1769V43.4954C35.1769 41.5203 35.2201 40.6697 35.3499 40.5399C35.4652 40.4246 36.0131 40.3669 36.8636 40.3669H38.2044V43.3224ZM39.574 44.4901V47.5033L37.8728 47.5465C36.3591 47.5753 36.1284 47.6186 35.6671 47.9358C35.3787 48.1376 35.0039 48.2962 34.8597 48.2962C34.4993 48.2962 33.591 47.8781 33.591 47.7051C33.591 47.633 32.7837 47.5753 31.8034 47.5753H30.0157L29.9148 45.9318C29.8571 45.0236 29.8571 43.6251 29.9148 42.8322C30.0157 41.4194 30.0301 41.3761 30.3617 41.3761H30.7077V44.1153V46.8545H32.3368C33.8938 46.8545 33.9947 46.8689 34.3119 47.2149C34.4993 47.4167 34.73 47.5753 34.8309 47.5753C34.9318 47.5753 35.1336 47.4167 35.2922 47.2149C35.5661 46.8689 35.6382 46.8545 37.1664 46.8545C38.6802 46.8545 38.7522 46.8401 38.8387 46.5229C38.882 46.3499 38.9252 45.0956 38.9252 43.7261V41.2464L39.2568 41.3617C39.574 41.477 39.574 41.5059 39.574 44.4901ZM76.2214 46.0904C76.1782 46.3211 76.0052 47.4888 75.8178 48.6854L75.4862 50.8912H75.0249C74.7653 50.8912 74.5058 50.8191 74.4626 50.7326C74.3473 50.5596 73.6697 46.5229 73.6697 46.0183C73.6697 45.7156 73.7129 45.7012 74.9816 45.7012H76.3079L76.2214 46.0904Z" fill="white"/>
<path d="M53.7024 35.9555C51.9003 36.388 50.4587 37.5558 49.6802 39.1993C49.2621 40.0787 49.2332 40.2661 49.2332 41.6645C49.2332 43.063 49.2621 43.2504 49.6946 44.1442C51.8283 48.6567 58.1716 48.6567 60.3053 44.1442C60.7378 43.2504 60.7667 43.063 60.7667 41.6645C60.7667 40.2661 60.7378 40.0787 60.3197 39.2137C59.5268 37.5558 57.9121 36.3015 56.11 35.9122C55.1729 35.7104 54.6395 35.7248 53.7024 35.9555Z" fill="white"/>
<path d="M48.6998 58.114C42.5006 58.3591 36.2293 58.9934 30.131 59.9882C26.9882 60.4927 26.9593 60.4927 26.9593 60.8243C26.9593 61.2857 27.9252 64.6159 28.6172 66.5334C29.5688 69.1861 31.4718 72.9777 32.9855 75.2555C34.211 77.0865 35.7968 79.1769 36.0131 79.2634C36.0707 79.2778 40.3669 75.0393 45.557 69.8492L54.9999 60.4062L64.4862 69.8781C73.8427 79.2346 73.9724 79.3643 74.2175 79.0616C77.8217 74.6356 80.2437 70.1808 81.9305 64.9043C82.8532 62.0642 83.1559 60.709 82.9108 60.5504C82.7234 60.4495 78.5425 59.7431 75.9908 59.3971C67.3984 58.2149 57.3787 57.7391 48.6998 58.114Z" fill="white"/>
<path d="M47.8636 76.9279L40.7273 84.0642L41.1598 84.4246C43.5242 86.4141 46.5229 88.4901 49.4639 90.1769C51.6985 91.4744 54.6972 92.9882 54.9855 92.9882C55.7352 92.9882 62.612 89.0956 65.3079 87.1638C66.9082 86.0104 69.2005 84.1795 69.2005 84.0642C69.2005 84.0209 65.9999 80.7772 62.093 76.8702L54.9999 69.7772L47.8636 76.9279ZM49.7234 83.0838C49.7378 84.8427 49.7522 84.9436 50.0406 85.0157C50.5596 85.1599 50.0406 85.3473 49.1323 85.3473C48.325 85.3473 47.9069 85.1599 48.4259 85.0157C48.5989 84.9724 48.7142 84.7706 48.7719 84.3958C48.8872 83.7614 48.9016 81.7431 48.8151 81.7431C48.7719 81.7431 48.5845 81.8007 48.3826 81.8872C47.7483 82.1179 47.9501 81.7863 48.7575 81.2385C49.709 80.6041 49.709 80.6186 49.7234 83.0838ZM53.3853 80.8925C54.0628 81.1952 54.1205 82.0314 53.5006 82.6513C53.4429 82.709 53.5727 82.9685 53.7889 83.2136C54.6828 84.1651 53.9475 85.3473 52.477 85.3473C52.0012 85.3473 51.785 85.2608 51.4534 84.9292C50.9344 84.4102 50.92 84.0065 51.3957 83.3866C51.8138 82.8387 51.8282 82.709 51.5399 82.4639C51.2804 82.2477 51.2516 81.5989 51.5111 81.2817C51.9292 80.7483 52.7221 80.5897 53.3853 80.8925ZM57.595 81.0943C58.0275 81.5124 58.0419 81.671 57.667 82.2909L57.3643 82.7667L57.7391 83.1992C58.2293 83.7903 58.2149 84.3958 57.6815 84.9292C57.321 85.2896 57.148 85.3473 56.5137 85.3473C55.8794 85.3473 55.7064 85.2896 55.3459 84.9292C55.1153 84.6985 54.9278 84.3813 54.9278 84.2372C54.9278 83.9488 55.2883 83.3578 55.6343 83.0983C55.8217 82.9541 55.8073 82.882 55.5334 82.536C55.1009 81.9882 55.1297 81.5557 55.6631 81.1087C56.2542 80.6041 57.1048 80.5897 57.595 81.0943ZM61.5019 81.1087C61.4586 81.2385 61.4154 81.4692 61.4154 81.6277C61.4154 81.9161 61.401 81.9161 61.1559 81.6998C60.9973 81.5557 60.6369 81.4547 60.2909 81.4547C59.4547 81.4547 59.498 81.7863 60.3918 82.2477C61.2136 82.6513 61.5596 83.0838 61.5596 83.6605C61.5596 84.6697 60.7811 85.3473 59.6133 85.3473H58.9645V84.7273L58.979 84.1218L59.2673 84.5111C59.7863 85.2175 60.6946 84.8859 60.6946 83.9777C60.6946 83.4731 60.2909 83.0118 59.6566 82.7667C59.2817 82.6225 59.2529 82.5504 59.2529 81.844C59.2529 81.4115 59.2961 81.0222 59.3538 80.979C59.397 80.9213 59.9305 80.8781 60.5216 80.8781C61.4298 80.8781 61.574 80.9069 61.5019 81.1087Z" fill="white"/>
<path d="M52.2175 81.3395C51.9292 81.6278 52.0157 81.9882 52.4626 82.3054L52.8807 82.6082L53.0681 82.1612C53.1978 81.8441 53.1978 81.6422 53.0969 81.4692C52.9095 81.1809 52.4482 81.1088 52.2175 81.3395Z" fill="white"/>
<path d="M52.131 83.502C51.6697 84.1507 51.9436 84.9148 52.6212 84.9148C53.3564 84.9148 53.5727 84.1219 52.9816 83.5452C52.5491 83.0983 52.4049 83.0983 52.131 83.502Z" fill="white"/>
<path d="M56.0956 81.4404C55.8938 81.8008 56.0091 82.0891 56.4416 82.3775C56.7732 82.5937 56.802 82.5937 56.9462 82.3198C57.0327 82.1468 57.0904 81.844 57.0615 81.6278C57.0039 81.1232 56.3263 80.9935 56.0956 81.4404Z" fill="white"/>
<path d="M56.1965 83.2857C55.6343 83.9345 55.8505 84.9148 56.5569 84.9148C57.3066 84.9148 57.4508 84.1651 56.8309 83.4587C56.456 83.0406 56.4272 83.0262 56.1965 83.2857Z" fill="white"/>
<path d="M89.0956 19.6933L87.8702 20.9187L88.3459 21.3512C88.8649 21.8126 89.2109 21.8702 89.7876 21.5675C91.0419 20.9187 91.4311 19.477 90.5661 18.6841C90.321 18.4823 90.2201 18.54 89.0956 19.6933Z" fill="white"/>
<path d="M7.785 38.291C6.76141 38.7379 6.19916 39.6173 6.19916 40.8139C6.19916 41.5348 6.24241 41.6069 6.89116 42.2412C7.6985 43.0197 8.70768 43.3945 10.0196 43.3945C11.1009 43.3945 11.7352 43.1494 12.3551 42.5007C13.4508 41.3618 13.3787 39.9057 12.1965 38.9974C11.072 38.1468 8.92393 37.8008 7.785 38.291Z" fill="white"/>
<path d="M17.8767 82.2766C16.8964 83.1704 17.3289 84.5544 18.5832 84.5544C19.823 84.5544 20.5294 83.0839 19.6788 82.2478C19.1887 81.7432 18.4534 81.7576 17.8767 82.2766Z" fill="white"/>
<path d="M20.5438 85.2031C20.2843 85.4914 20.2843 85.5059 20.7168 85.9528C21.1061 86.342 21.207 86.3709 21.3944 86.2123C21.6972 85.9816 21.6828 85.9384 21.207 85.3761L20.8033 84.9148L20.5438 85.2031Z" fill="white"/>
<path d="M73.0209 96.3329C72.5451 96.578 72.3721 96.9096 72.3721 97.4863C72.3721 98.9712 74.4049 99.2451 74.7653 97.8178C74.8951 97.2844 74.5779 96.6501 74.0301 96.3906C73.4678 96.1167 73.4102 96.1167 73.0209 96.3329Z" fill="white"/>
</g>
<defs>
<clipPath id="clip0">
<rect width="110" height="110" fill="white"/>
</clipPath>
</defs>
</svg>
